<svg width="281" height="179" viewBox="0 0 281 179" fill="none" xmlns="http://www.w3.org/2000/svg">
<path d="M56.6606 83.5215C53.6137 59.9274 50.9476 51.5266 43.3303 51.5266C36.1891 51.5266 32.6661 65.4208 30 81.0192V165H239V61.0272C235.509 77.6897 228.05 111.015 217.1 108.513C209.959 106.882 206.626 97.5163 198.057 70.0232C191.201 48.0287 184.409 54.8615 181.87 61.0272C180.442 65.5255 176.538 74.622 172.349 75.0219C168.159 75.4218 164.89 69.5245 163.779 66.5258C159.653 53.0286 147.783 34.1325 139.023 66.5258C130.263 98.9191 122.913 74.2545 120.932 66.5258C117.599 53.5261 111.315 7.44103 103.317 9.04063C93.3189 11.0401 85.7016 76.5233 81.8929 94.0189C78.846 108.015 77.1321 117.513 69.9909 117.513C63.8018 117.513 59.7075 107.116 56.6606 83.5215Z" fill="url(#paint0_linear_1130_72)" fill-opacity="0.26"/>
<rect x="1" y="-1" width="253" height="2" rx="1" transform="matrix(1 0 0 -1 4 166)" stroke="url(#paint1_linear_1130_72)" stroke-width="2"/>
<path d="M0.582386 101.509V100.784L3.77841 95.7273H4.30398V96.8494H3.94886L1.53409 100.67V100.727H5.83807V101.509H0.582386ZM4.00568 103V101.288V100.951V95.7273H4.84375V103H4.00568ZM9.54102 103.099C9.00598 103.099 8.55025 102.954 8.17383 102.663C7.79741 102.369 7.50977 101.944 7.3109 101.388C7.11204 100.829 7.01261 100.154 7.01261 99.3636C7.01261 98.5777 7.11204 97.9065 7.3109 97.3501C7.51213 96.7914 7.80096 96.3653 8.17738 96.0717C8.55617 95.7758 9.01071 95.6278 9.54102 95.6278C10.0713 95.6278 10.5247 95.7758 10.9011 96.0717C11.2799 96.3653 11.5687 96.7914 11.7676 97.3501C11.9688 97.9065 12.0694 98.5777 12.0694 99.3636C12.0694 100.154 11.97 100.829 11.7711 101.388C11.5723 101.944 11.2846 102.369 10.9082 102.663C10.5318 102.954 10.0761 103.099 9.54102 103.099ZM9.54102 102.318C10.0713 102.318 10.4833 102.062 10.7768 101.551C11.0704 101.04 11.2172 100.311 11.2172 99.3636C11.2172 98.7339 11.1497 98.1977 11.0147 97.755C10.8822 97.3123 10.6904 96.9749 10.4395 96.7429C10.1909 96.5109 9.89139 96.3949 9.54102 96.3949C9.01545 96.3949 8.6047 96.6541 8.30877 97.1726C8.01284 97.6887 7.86488 98.419 7.86488 99.3636C7.86488 99.9934 7.93117 100.528 8.06374 100.969C8.19632 101.409 8.3869 101.744 8.63548 101.974C8.88642 102.203 9.18827 102.318 9.54102 102.318Z" fill="#959595"/>
<path d="M0.752841 135V134.361L3.15341 131.733C3.43513 131.425 3.66714 131.158 3.84943 130.93C4.03172 130.701 4.16667 130.485 4.25426 130.284C4.34422 130.08 4.3892 129.867 4.3892 129.645C4.3892 129.389 4.32765 129.168 4.20455 128.981C4.08381 128.794 3.91809 128.649 3.70739 128.548C3.49669 128.446 3.25994 128.395 2.99716 128.395C2.7178 128.395 2.47396 128.453 2.26562 128.569C2.05966 128.683 1.89986 128.842 1.78622 129.048C1.67495 129.254 1.61932 129.496 1.61932 129.773H0.78125C0.78125 129.347 0.879498 128.973 1.07599 128.651C1.27249 128.329 1.54001 128.078 1.87855 127.898C2.21946 127.718 2.6018 127.628 3.02557 127.628C3.4517 127.628 3.82931 127.718 4.15838 127.898C4.48745 128.078 4.7455 128.32 4.93253 128.626C5.11955 128.931 5.21307 129.271 5.21307 129.645C5.21307 129.912 5.16454 130.174 5.06747 130.43C4.97277 130.683 4.80705 130.966 4.57031 131.278C4.33594 131.589 4.01042 131.967 3.59375 132.415L1.96023 134.162V134.219H5.34091V135H0.752841ZM9.17969 135.099C8.64465 135.099 8.18892 134.954 7.8125 134.663C7.43608 134.369 7.14844 133.944 6.94957 133.388C6.75071 132.829 6.65128 132.154 6.65128 131.364C6.65128 130.578 6.75071 129.906 6.94957 129.35C7.1508 128.791 7.43963 128.365 7.81605 128.072C8.19484 127.776 8.64938 127.628 9.17969 127.628C9.70999 127.628 10.1634 127.776 10.5398 128.072C10.9186 128.365 11.2074 128.791 11.4062 129.35C11.6075 129.906 11.7081 130.578 11.7081 131.364C11.7081 132.154 11.6087 132.829 11.4098 133.388C11.2109 133.944 10.9233 134.369 10.5469 134.663C10.1705 134.954 9.71473 135.099 9.17969 135.099ZM9.17969 134.318C9.70999 134.318 10.1219 134.062 10.4155 133.551C10.709 133.04 10.8558 132.311 10.8558 131.364C10.8558 130.734 10.7884 130.198 10.6534 129.755C10.5208 129.312 10.3291 128.975 10.0781 128.743C9.82955 128.511 9.53007 128.395 9.17969 128.395C8.65412 128.395 8.24337 128.654 7.94744 129.173C7.65152 129.689 7.50355 130.419 7.50355 131.364C7.50355 131.993 7.56984 132.528 7.70241 132.969C7.83499 133.409 8.02557 133.744 8.27415 133.974C8.52509 134.203 8.82694 134.318 9.17969 134.318Z" fill="#959595"/>
<path d="M3.16761 72.0994C2.86932 72.0947 2.57102 72.0379 2.27273 71.929C1.97443 71.8201 1.70218 71.6366 1.45597 71.3786C1.20975 71.1181 1.01207 70.7666 0.862926 70.3239C0.713778 69.8788 0.639205 69.3201 0.639205 68.6477C0.639205 68.0038 0.699574 67.4332 0.820312 66.9361C0.941051 66.4366 1.11624 66.0163 1.34588 65.6754C1.57552 65.3321 1.85251 65.0717 2.17685 64.8942C2.50355 64.7166 2.87169 64.6278 3.28125 64.6278C3.68845 64.6278 4.05066 64.7095 4.3679 64.8729C4.6875 65.0339 4.94792 65.2588 5.14915 65.5476C5.35038 65.8364 5.48059 66.169 5.53977 66.5455H4.6733C4.5928 66.2187 4.43655 65.9477 4.20455 65.7322C3.97254 65.5168 3.66477 65.4091 3.28125 65.4091C2.7178 65.4091 2.27391 65.6541 1.94957 66.1442C1.6276 66.6342 1.46544 67.322 1.46307 68.2074H1.51989C1.65246 68.0062 1.8099 67.8345 1.99219 67.6925C2.17685 67.5481 2.38045 67.4368 2.60298 67.3587C2.82552 67.2805 3.06108 67.2415 3.30966 67.2415C3.72633 67.2415 4.10748 67.3456 4.45312 67.554C4.79877 67.7599 5.07576 68.0452 5.28409 68.4098C5.49242 68.772 5.59659 69.1875 5.59659 69.6562C5.59659 70.1061 5.49598 70.518 5.29474 70.892C5.09351 71.2637 4.81061 71.5597 4.44602 71.7798C4.08381 71.9976 3.65767 72.1042 3.16761 72.0994ZM3.16761 71.3182C3.46591 71.3182 3.73343 71.2436 3.97017 71.0945C4.20928 70.9453 4.39749 70.7453 4.5348 70.4943C4.67448 70.2434 4.74432 69.964 4.74432 69.6562C4.74432 69.3556 4.67685 69.0821 4.5419 68.8359C4.40933 68.5874 4.22585 68.3897 3.99148 68.2429C3.75947 68.0961 3.49432 68.0227 3.19602 68.0227C2.97112 68.0227 2.7616 68.0677 2.56747 68.1577C2.37334 68.2453 2.20289 68.366 2.05611 68.5199C1.9117 68.6738 1.79806 68.8501 1.7152 69.049C1.63234 69.2455 1.59091 69.4527 1.59091 69.6705C1.59091 69.9593 1.65838 70.2292 1.79332 70.4801C1.93063 70.7311 2.11766 70.9335 2.3544 71.0874C2.59351 71.2412 2.86458 71.3182 3.16761 71.3182ZM9.36523 72.0994C8.8302 72.0994 8.37447 71.9538 7.99805 71.6626C7.62163 71.3691 7.33398 70.9441 7.13512 70.3878C6.93626 69.8291 6.83683 69.1544 6.83683 68.3636C6.83683 67.5777 6.93626 66.9065 7.13512 66.3501C7.33635 65.7914 7.62518 65.3653 8.0016 65.0717C8.38039 64.7758 8.83493 64.6278 9.36523 64.6278C9.89554 64.6278 10.3489 64.7758 10.7253 65.0717C11.1041 65.3653 11.3929 65.7914 11.5918 66.3501C11.793 66.9065 11.8936 67.5777 11.8936 68.3636C11.8936 69.1544 11.7942 69.8291 11.5953 70.3878C11.3965 70.9441 11.1088 71.3691 10.7324 71.6626C10.356 71.9538 9.90027 72.0994 9.36523 72.0994ZM9.36523 71.3182C9.89554 71.3182 10.3075 71.0625 10.601 70.5511C10.8946 70.0398 11.0414 69.3106 11.0414 68.3636C11.0414 67.7339 10.9739 67.1977 10.839 66.755C10.7064 66.3123 10.5146 65.9749 10.2637 65.7429C10.0151 65.5109 9.71561 65.3949 9.36523 65.3949C8.83967 65.3949 8.42892 65.6541 8.13299 66.1726C7.83706 66.6887 7.6891 67.419 7.6891 68.3636C7.6891 68.9934 7.75539 69.5284 7.88796 69.9688C8.02054 70.4091 8.21112 70.7441 8.45969 70.9737C8.71064 71.2034 9.01249 71.3182 9.36523 71.3182Z" fill="#959595"/>
<path d="M3.08239 41.0994C2.5947 41.0994 2.16383 41.013 1.78977 40.8402C1.41809 40.665 1.12808 40.4247 0.919744 40.1193C0.711411 39.8116 0.608428 39.4612 0.610795 39.0682C0.608428 38.7604 0.668797 38.4763 0.791903 38.2159C0.915009 37.9531 1.0831 37.7341 1.29616 37.5589C1.5116 37.3814 1.75189 37.2689 2.01705 37.2216V37.179C1.66903 37.089 1.39205 36.8937 1.18608 36.593C0.980114 36.29 0.878314 35.9455 0.880682 35.5597C0.878314 35.1903 0.971828 34.8601 1.16122 34.5689C1.35062 34.2777 1.61103 34.0481 1.94247 33.88C2.27628 33.7119 2.65625 33.6278 3.08239 33.6278C3.50379 33.6278 3.88021 33.7119 4.21165 33.88C4.54309 34.0481 4.8035 34.2777 4.9929 34.5689C5.18466 34.8601 5.28172 35.1903 5.28409 35.5597C5.28172 35.9455 5.17637 36.29 4.96804 36.593C4.76207 36.8937 4.48864 37.089 4.14773 37.179V37.2216C4.41051 37.2689 4.64725 37.3814 4.85795 37.5589C5.06866 37.7341 5.23674 37.9531 5.36222 38.2159C5.48769 38.4763 5.55161 38.7604 5.55398 39.0682C5.55161 39.4612 5.44508 39.8116 5.23438 40.1193C5.02604 40.4247 4.73603 40.665 4.36435 40.8402C3.99503 41.013 3.56771 41.0994 3.08239 41.0994ZM3.08239 40.3182C3.41146 40.3182 3.69555 40.2649 3.93466 40.1584C4.17377 40.0518 4.35843 39.9015 4.48864 39.7074C4.61884 39.5133 4.68513 39.286 4.6875 39.0256C4.68513 38.7509 4.61411 38.5083 4.47443 38.2976C4.33475 38.0869 4.14418 37.9212 3.9027 37.8004C3.66359 37.6797 3.39015 37.6193 3.08239 37.6193C2.77225 37.6193 2.49527 37.6797 2.25142 37.8004C2.00994 37.9212 1.81937 38.0869 1.67969 38.2976C1.54238 38.5083 1.47491 38.7509 1.47727 39.0256C1.47491 39.286 1.53764 39.5133 1.66548 39.7074C1.79569 39.9015 1.98153 40.0518 2.22301 40.1584C2.46449 40.2649 2.75095 40.3182 3.08239 40.3182ZM3.08239 36.8665C3.3428 36.8665 3.57363 36.8144 3.77486 36.7102C3.97846 36.6061 4.13826 36.4605 4.25426 36.2734C4.37027 36.0864 4.42945 35.8674 4.43182 35.6165C4.42945 35.3703 4.37145 35.156 4.25781 34.9737C4.14418 34.7891 3.98674 34.647 3.78551 34.5476C3.58428 34.4458 3.34991 34.3949 3.08239 34.3949C2.81013 34.3949 2.57221 34.4458 2.36861 34.5476C2.16501 34.647 2.00758 34.7891 1.89631 34.9737C1.78504 35.156 1.73059 35.3703 1.73295 35.6165C1.73059 35.8674 1.78622 36.0864 1.89986 36.2734C2.01586 36.4605 2.17566 36.6061 2.37926 36.7102C2.58286 36.8144 2.81723 36.8665 3.08239 36.8665ZM9.28711 41.0994C8.75207 41.0994 8.29634 40.9538 7.91992 40.6626C7.5435 40.3691 7.25586 39.9441 7.057 39.3878C6.85813 38.8291 6.7587 38.1544 6.7587 37.3636C6.7587 36.5777 6.85813 35.9065 7.057 35.3501C7.25823 34.7914 7.54705 34.3653 7.92347 34.0717C8.30226 33.7758 8.75681 33.6278 9.28711 33.6278C9.81741 33.6278 10.2708 33.7758 10.6472 34.0717C11.026 34.3653 11.3148 34.7914 11.5137 35.3501C11.7149 35.9065 11.8155 36.5777 11.8155 37.3636C11.8155 38.1544 11.7161 38.8291 11.5172 39.3878C11.3184 39.9441 11.0307 40.3691 10.6543 40.6626C10.2779 40.9538 9.82215 41.0994 9.28711 41.0994ZM9.28711 40.3182C9.81741 40.3182 10.2293 40.0625 10.5229 39.5511C10.8165 39.0398 10.9632 38.3106 10.9632 37.3636C10.9632 36.7339 10.8958 36.1977 10.7608 35.755C10.6283 35.3123 10.4365 34.9749 10.1855 34.7429C9.93697 34.5109 9.63749 34.3949 9.28711 34.3949C8.76154 34.3949 8.35079 34.6541 8.05487 35.1726C7.75894 35.6887 7.61097 36.419 7.61097 37.3636C7.61097 37.9934 7.67726 38.5284 7.80984 38.9688C7.94241 39.4091 8.13299 39.7441 8.38157 39.9737C8.63252 40.2034 8.93436 40.3182 9.28711 40.3182Z" fill="#959595"/>
<path d="M3.30966 2.72727V10H2.42898V3.65057H2.38636L0.610795 4.82955V3.93466L2.42898 2.72727H3.30966ZM7.77344 10.0994C7.2384 10.0994 6.78267 9.95384 6.40625 9.66264C6.02983 9.36908 5.74219 8.94413 5.54332 8.38778C5.34446 7.82907 5.24503 7.15436 5.24503 6.36364C5.24503 5.57765 5.34446 4.90649 5.54332 4.35014C5.74455 3.79143 6.03338 3.36529 6.4098 3.07173C6.78859 2.7758 7.24313 2.62784 7.77344 2.62784C8.30374 2.62784 8.7571 2.7758 9.13352 3.07173C9.51231 3.36529 9.80114 3.79143 10 4.35014C10.2012 4.90649 10.3018 5.57765 10.3018 6.36364C10.3018 7.15436 10.2024 7.82907 10.0036 8.38778C9.80469 8.94413 9.51705 9.36908 9.14062 9.66264C8.7642 9.95384 8.30848 10.0994 7.77344 10.0994ZM7.77344 9.31818C8.30374 9.31818 8.71567 9.0625 9.00923 8.55114C9.30279 8.03977 9.44957 7.31061 9.44957 6.36364C9.44957 5.7339 9.3821 5.19768 9.24716 4.75497C9.11458 4.31226 8.92282 3.97491 8.67188 3.7429C8.4233 3.51089 8.12382 3.39489 7.77344 3.39489C7.24787 3.39489 6.83712 3.65412 6.54119 4.17259C6.24527 4.68868 6.0973 5.41903 6.0973 6.36364C6.0973 6.99337 6.16359 7.52841 6.29616 7.96875C6.42874 8.40909 6.61932 8.74408 6.8679 8.97372C7.11884 9.20336 7.42069 9.31818 7.77344 9.31818ZM14.0234 10.0994C13.4884 10.0994 13.0327 9.95384 12.6562 9.66264C12.2798 9.36908 11.9922 8.94413 11.7933 8.38778C11.5945 7.82907 11.495 7.15436 11.495 6.36364C11.495 5.57765 11.5945 4.90649 11.7933 4.35014C11.9946 3.79143 12.2834 3.36529 12.6598 3.07173C13.0386 2.7758 13.4931 2.62784 14.0234 2.62784C14.5537 2.62784 15.0071 2.7758 15.3835 3.07173C15.7623 3.36529 16.0511 3.79143 16.25 4.35014C16.4512 4.90649 16.5518 5.57765 16.5518 6.36364C16.5518 7.15436 16.4524 7.82907 16.2536 8.38778C16.0547 8.94413 15.767 9.36908 15.3906 9.66264C15.0142 9.95384 14.5585 10.0994 14.0234 10.0994ZM14.0234 9.31818C14.5537 9.31818 14.9657 9.0625 15.2592 8.55114C15.5528 8.03977 15.6996 7.31061 15.6996 6.36364C15.6996 5.7339 15.6321 5.19768 15.4972 4.75497C15.3646 4.31226 15.1728 3.97491 14.9219 3.7429C14.6733 3.51089 14.3738 3.39489 14.0234 3.39489C13.4979 3.39489 13.0871 3.65412 12.7912 4.17259C12.4953 4.68868 12.3473 5.41903 12.3473 6.36364C12.3473 6.99337 12.4136 7.52841 12.5462 7.96875C12.6787 8.40909 12.8693 8.74408 13.1179 8.97372C13.3688 9.20336 13.6707 9.31818 14.0234 9.31818Z" fill="#959595"/>
<line x1="21" y1="99.75" x2="258" y2="99.75" stroke="#CDEAFF" stroke-width="0.5"/>
<line x1="21" y1="130.75" x2="258" y2="130.75" stroke="#CDEAFF" stroke-width="0.5"/>
<line x1="21" y1="68.75" x2="258" y2="68.75" stroke="#CDEAFF" stroke-width="0.5"/>
<line x1="21" y1="37.75" x2="258" y2="37.75" stroke="#CDEAFF" stroke-width="0.5"/>
<line x1="21" y1="6.75" x2="258" y2="6.75" stroke="#CDEAFF" stroke-width="0.5"/>
<path d="M56.3699 83.856L55.874 83.9202L56.3699 83.856ZM81.7808 94.4004L81.2923 94.2938L81.7808 94.4004ZM103.356 9.04082L103.454 9.53116L103.356 9.04082ZM121.096 66.784L120.612 66.9085L121.096 66.784ZM139.315 66.784L138.832 66.6532L139.315 66.784ZM164.247 66.784L163.769 66.9308L163.773 66.9446L163.778 66.9581L164.247 66.784ZM182.466 61.2607L182.004 61.0699L181.996 61.0892L181.989 61.109L182.466 61.2607ZM198.767 70.297L198.29 70.4462L198.767 70.297ZM217.945 108.96L218.056 108.473L217.945 108.96ZM240.489 61.3635C240.546 61.0932 240.373 60.8281 240.103 60.7714C239.833 60.7146 239.567 60.8877 239.511 61.1579L240.489 61.3635ZM42.9452 52.2175C44.7611 52.2175 46.2487 52.713 47.5254 53.7887C48.8159 54.876 49.9277 56.5871 50.9188 59.0837C52.9058 64.0884 54.3386 72.0609 55.874 83.9202L56.8657 83.7918C55.3327 71.9511 53.8888 63.8543 51.8483 58.7147C50.8258 56.1393 49.6362 54.2595 48.1698 53.024C46.6897 51.7769 44.9649 51.2175 42.9452 51.2175V52.2175ZM55.874 83.9202C57.4092 95.7776 59.2131 104.365 61.4303 109.999C63.631 115.59 66.3349 118.5 69.7945 118.5V117.5C67.0213 117.5 64.5471 115.188 62.3608 109.632C60.191 104.119 58.399 95.6343 56.8657 83.7918L55.874 83.9202ZM69.7945 118.5C71.7179 118.5 73.2942 117.857 74.6069 116.659C75.905 115.475 76.9257 113.767 77.7959 111.664C79.5316 107.469 80.7408 101.51 82.2693 94.5071L81.2923 94.2938C79.7523 101.35 78.5642 107.191 76.8719 111.281C76.0281 113.321 75.077 114.877 73.9329 115.92C72.8034 116.951 71.467 117.5 69.7945 117.5V118.5ZM82.2693 94.5071C83.2318 90.097 84.4331 82.6732 85.8477 74.0119C87.2637 65.3419 88.8957 55.4163 90.7221 45.9785C92.5491 36.5368 94.5671 27.6022 96.7521 20.9094C97.8453 17.5606 98.9729 14.7965 100.128 12.8163C100.705 11.8265 101.279 11.0492 101.846 10.4949C102.414 9.93984 102.951 9.6315 103.454 9.53116L103.258 8.55048C102.503 8.70119 101.8 9.1421 101.147 9.77978C100.494 10.4183 99.8674 11.2773 99.2637 12.3126C98.0567 14.3826 96.9032 17.2242 95.8014 20.599C93.5964 27.3535 91.569 36.3382 89.7403 45.7885C87.9108 55.2427 86.2765 65.1821 84.8608 73.8508C83.4436 82.5282 82.2476 89.9168 81.2923 94.2938L82.2693 94.5071ZM103.454 9.53116C104.188 9.38473 104.999 9.75605 105.91 10.8457C106.811 11.9245 107.709 13.5962 108.592 15.7395C110.354 20.0174 111.998 26.0278 113.501 32.5258C115.003 39.0179 116.359 45.9699 117.55 52.1219C118.739 58.2641 119.768 63.6253 120.612 66.9085L121.58 66.6595C120.746 63.4136 119.725 58.0917 118.532 51.9318C117.341 45.7817 115.982 38.8127 114.475 32.3004C112.97 25.794 111.311 19.7166 109.516 15.3586C108.621 13.184 107.677 11.4007 106.677 10.2045C105.687 9.01903 104.538 8.29521 103.258 8.55048L103.454 9.53116ZM120.612 66.9085C121.112 68.8569 121.955 71.8819 123.077 74.8136C124.191 77.7235 125.61 80.6249 127.298 82.2567C128.148 83.0791 129.121 83.631 130.2 83.6302C131.287 83.6294 132.356 83.0689 133.395 81.9419C135.451 79.7123 137.592 75.0516 139.798 66.9148L138.832 66.6532C136.628 74.7857 134.535 79.2301 132.66 81.264C131.733 82.2688 130.912 82.6297 130.199 82.6302C129.48 82.6307 128.744 82.2639 127.993 81.5378C126.478 80.0726 125.122 77.3582 124.011 74.4562C122.908 71.5759 122.077 68.5927 121.58 66.6595L120.612 66.9085ZM139.798 66.9148C141.998 58.7981 144.336 53.846 146.636 51.1894C147.781 49.8675 148.893 49.1409 149.948 48.8522C150.995 48.5657 152.037 48.6959 153.079 49.1827C155.198 50.1726 157.273 52.6189 159.135 55.8727C160.985 59.1058 162.578 63.054 163.769 66.9308L164.725 66.6372C163.518 62.711 161.899 58.6903 160.003 55.3761C158.119 52.0827 155.915 49.4034 153.503 48.2767C152.279 47.7052 150.993 47.5294 149.684 47.8876C148.383 48.2435 147.112 49.1123 145.88 50.5348C143.428 53.3673 141.043 58.5005 138.832 66.6532L139.798 66.9148ZM163.778 66.9581C164.337 68.4625 165.218 70.742 166.509 72.5975C167.791 74.4404 169.579 76.0046 171.965 75.7774L171.87 74.7819C170.038 74.9563 168.549 73.7788 167.33 72.0264C166.12 70.2868 165.275 68.1176 164.715 66.6099L163.778 66.9581ZM171.965 75.7774C173.179 75.6618 174.375 74.9329 175.481 73.9245C176.595 72.9074 177.673 71.5556 178.65 70.0916C180.605 67.1652 182.208 63.7188 182.942 61.4124L181.989 61.109C181.285 63.3211 179.724 66.6832 177.819 69.5363C176.867 70.962 175.84 72.2426 174.807 73.1857C173.763 74.1375 172.766 74.6966 171.87 74.7819L171.965 75.7774ZM182.928 61.4515C183.553 59.9382 184.431 58.4073 185.484 57.297C186.54 56.1829 187.71 55.5537 188.94 55.6692C190.174 55.7852 191.642 56.667 193.257 58.9798C194.867 61.2864 196.571 64.945 198.29 70.4462L199.244 70.1479C197.511 64.6025 195.771 60.8341 194.077 58.4074C192.387 55.9869 190.691 54.8292 189.033 54.6736C187.37 54.5175 185.919 55.3846 184.758 56.6089C183.593 57.837 182.657 59.4865 182.004 61.0699L182.928 61.4515ZM198.29 70.4462C202.601 84.2422 205.608 93.536 208.443 99.5825C211.277 105.628 214.004 108.575 217.834 109.448L218.056 108.473C214.694 107.707 212.148 105.13 209.348 99.1581C206.549 93.1869 203.563 83.9683 199.244 70.1479L198.29 70.4462ZM217.834 109.448C220.89 110.144 223.605 108.312 225.947 105.223C228.303 102.116 230.406 97.5876 232.259 92.5001C235.969 82.3156 238.732 69.7298 240.489 61.3635L239.511 61.1579C237.752 69.5288 235.002 82.049 231.32 92.1579C229.477 97.2172 227.415 101.633 225.151 104.619C222.873 107.622 220.514 109.032 218.056 108.473L217.834 109.448ZM42.9452 51.2175C40.9625 51.2175 39.2944 52.1846 37.888 53.81C36.4898 55.4258 35.323 57.7199 34.3133 60.4629C32.2934 65.9506 30.8488 73.3914 29.5072 81.2206L30.4928 81.3895C31.8361 73.5503 33.2682 66.1973 35.2518 60.8083C36.2438 58.113 37.3603 55.9481 38.6442 54.4644C39.9196 52.9904 41.3321 52.2175 42.9452 52.2175V51.2175Z" fill="url(#paint2_linear_1130_72)" fill-opacity="0.62"/>
<g filter="url(#filter0_d_1130_72)">
<rect x="211" y="12" width="59" height="41" rx="6" fill="white"/>
</g>
<path d="M231.768 33.1989C231.072 33.1941 230.392 33.0734 229.729 32.8366C229.067 32.5952 228.47 32.2045 227.94 31.6648C227.409 31.1203 226.988 30.3982 226.675 29.4986C226.363 28.5942 226.209 27.4744 226.214 26.1392C226.214 24.8939 226.346 23.7836 226.612 22.8082C226.877 21.8329 227.258 21.009 227.755 20.3366C228.252 19.6596 228.851 19.1435 229.552 18.7884C230.257 18.4332 231.046 18.2557 231.917 18.2557C232.831 18.2557 233.64 18.4356 234.346 18.7955C235.056 19.1553 235.629 19.6477 236.065 20.2727C236.5 20.893 236.77 21.5938 236.874 22.375H234.282C234.149 21.8163 233.877 21.3712 233.465 21.0398C233.058 20.7036 232.542 20.5355 231.917 20.5355C230.908 20.5355 230.132 20.9735 229.587 21.8494C229.048 22.7254 228.775 23.928 228.771 25.4574H228.87C229.102 25.0407 229.403 24.6832 229.772 24.3849C230.141 24.0866 230.558 23.857 231.022 23.696C231.491 23.5303 231.986 23.4474 232.506 23.4474C233.359 23.4474 234.123 23.651 234.8 24.0582C235.482 24.4654 236.022 25.0265 236.42 25.7415C236.817 26.4517 237.014 27.2661 237.009 28.1847C237.014 29.1411 236.796 30.0005 236.356 30.7628C235.915 31.5204 235.302 32.117 234.516 32.5526C233.73 32.9882 232.814 33.2036 231.768 33.1989ZM231.754 31.0682C232.27 31.0682 232.731 30.9427 233.138 30.6918C233.546 30.4408 233.868 30.1023 234.104 29.6761C234.341 29.25 234.457 28.7718 234.452 28.2415C234.457 27.7206 234.344 27.2495 234.112 26.8281C233.884 26.4067 233.569 26.0729 233.167 25.8267C232.764 25.5805 232.305 25.4574 231.789 25.4574C231.406 25.4574 231.048 25.5308 230.717 25.6776C230.385 25.8243 230.096 26.0279 229.85 26.2884C229.604 26.544 229.41 26.8423 229.268 27.1832C229.13 27.5194 229.059 27.8793 229.055 28.2628C229.059 28.7694 229.178 29.2358 229.41 29.6619C229.642 30.0881 229.961 30.429 230.369 30.6847C230.776 30.9403 231.237 31.0682 231.754 31.0682ZM245.326 18.4545V33H242.691V21.0185H242.606L239.204 23.1918V20.777L242.819 18.4545H245.326ZM253.168 31.3636V30.9034C253.168 30.5653 253.239 30.2543 253.381 29.9702C253.526 29.6861 253.737 29.4574 254.012 29.2841C254.288 29.1108 254.621 29.0241 255.013 29.0241C255.417 29.0241 255.755 29.1108 256.028 29.2841C256.3 29.4545 256.506 29.6818 256.646 29.9659C256.788 30.25 256.859 30.5625 256.859 30.9034V31.3636C256.859 31.7017 256.788 32.0128 256.646 32.2969C256.504 32.581 256.295 32.8097 256.019 32.983C255.746 33.1563 255.411 33.2429 255.013 33.2429C254.616 33.2429 254.279 33.1563 254.004 32.983C253.728 32.8097 253.519 32.581 253.377 32.2969C253.238 32.0128 253.168 31.7017 253.168 31.3636ZM254.281 30.9034V31.3636C254.281 31.5881 254.335 31.794 254.442 31.9815C254.55 32.169 254.741 32.2628 255.013 32.2628C255.289 32.2628 255.478 32.1705 255.58 31.9858C255.685 31.7983 255.738 31.5909 255.738 31.3636V30.9034C255.738 30.6761 255.688 30.4688 255.589 30.2812C255.489 30.0909 255.298 29.9957 255.013 29.9957C254.746 29.9957 254.558 30.0909 254.447 30.2812C254.336 30.4688 254.281 30.6761 254.281 30.9034ZM248.732 26.3693V25.9091C248.732 25.5682 248.805 25.2557 248.95 24.9716C249.094 24.6875 249.305 24.4602 249.58 24.2898C249.856 24.1165 250.19 24.0298 250.582 24.0298C250.982 24.0298 251.319 24.1165 251.592 24.2898C251.867 24.4602 252.075 24.6875 252.214 24.9716C252.353 25.2557 252.423 25.5682 252.423 25.9091V26.3693C252.423 26.7102 252.352 27.0227 252.21 27.3068C252.07 27.5881 251.863 27.8139 251.587 27.9844C251.312 28.1548 250.977 28.2401 250.582 28.2401C250.181 28.2401 249.843 28.1548 249.567 27.9844C249.295 27.8139 249.087 27.5866 248.945 27.3026C248.803 27.0185 248.732 26.7074 248.732 26.3693ZM249.853 25.9091V26.3693C249.853 26.5966 249.906 26.804 250.011 26.9915C250.119 27.1761 250.309 27.2685 250.582 27.2685C250.854 27.2685 251.042 27.1761 251.144 26.9915C251.249 26.804 251.302 26.5966 251.302 26.3693V25.9091C251.302 25.6818 251.252 25.4744 251.153 25.2869C251.053 25.0966 250.863 25.0014 250.582 25.0014C250.312 25.0014 250.123 25.0966 250.015 25.2869C249.907 25.4773 249.853 25.6847 249.853 25.9091ZM249.218 33L255.218 24.2727H256.283L250.283 33H249.218Z" fill="#A18EED"/>
<g filter="url(#filter1_d_1130_72)">
<circle cx="239" cy="62" r="4" fill="white"/>
</g>
<circle cx="239" cy="62" r="2" fill="#9E76DF"/>
<line x1="30.5" y1="81" x2="30.5" y2="165" stroke="url(#paint3_linear_1130_72)"/>
<line x1="69.5" y1="118" x2="69.5" y2="165" stroke="url(#paint4_linear_1130_72)"/>
<line x1="100.5" y1="15" x2="100.5" y2="165" stroke="url(#paint5_linear_1130_72)"/>
<line x1="134.5" y1="82" x2="134.5" y2="165" stroke="url(#paint6_linear_1130_72)"/>
<line x1="169.5" y1="75" x2="169.5" y2="165" stroke="url(#paint7_linear_1130_72)"/>
<line x1="204.5" y1="90" x2="204.5" y2="165" stroke="url(#paint8_linear_1130_72)"/>
<line x1="239.5" y1="66" x2="239.5" y2="165" stroke="url(#paint9_linear_1130_72)"/>
<circle cx="204.5" cy="176.5" r="2.5" fill="#D9D9D9"/>
<circle cx="240.5" cy="176.5" r="2.5" fill="#D9D9D9"/>
<circle cx="169.5" cy="176.5" r="2.5" fill="#D9D9D9"/>
<circle cx="134.5" cy="176.5" r="2.5" fill="#D9D9D9"/>
<circle cx="100.5" cy="176.5" r="2.5" fill="#D9D9D9"/>
<circle cx="68.5" cy="176.5" r="2.5" fill="#D9D9D9"/>
<circle cx="30.5" cy="176.5" r="2.5" fill="#D9D9D9"/>
<path d="M218.445 41.1577V40.4545H223.354V41.1577H221.296V47H220.504V41.1577H218.445ZM225.23 44.0469V47H224.475V40.4545H225.23V42.858H225.294C225.409 42.6044 225.581 42.4031 225.811 42.2539C226.044 42.1026 226.353 42.027 226.738 42.027C227.073 42.027 227.366 42.0941 227.617 42.2283C227.869 42.3604 228.064 42.5639 228.202 42.8388C228.343 43.1115 228.413 43.4588 228.413 43.8807V47H227.659V43.9318C227.659 43.5419 227.558 43.2404 227.355 43.0273C227.155 42.8121 226.877 42.7045 226.521 42.7045C226.274 42.7045 226.052 42.7567 225.856 42.8612C225.662 42.9656 225.509 43.1179 225.396 43.3182C225.285 43.5185 225.23 43.7614 225.23 44.0469ZM229.793 47V42.0909H230.547V47H229.793ZM230.176 41.2727C230.029 41.2727 229.903 41.2227 229.796 41.1225C229.692 41.0224 229.639 40.902 229.639 40.7614C229.639 40.6207 229.692 40.5004 229.796 40.4002C229.903 40.3001 230.029 40.25 230.176 40.25C230.323 40.25 230.449 40.3001 230.554 40.4002C230.66 40.5004 230.713 40.6207 230.713 40.7614C230.713 40.902 230.66 41.0224 230.554 41.1225C230.449 41.2227 230.323 41.2727 230.176 41.2727ZM235.406 43.1903L234.728 43.3821C234.686 43.2692 234.623 43.1594 234.54 43.0529C234.459 42.9442 234.348 42.8548 234.207 42.7844C234.067 42.7141 233.887 42.679 233.667 42.679C233.367 42.679 233.116 42.7482 232.916 42.8867C232.718 43.0231 232.619 43.1967 232.619 43.4077C232.619 43.5952 232.687 43.7433 232.824 43.8519C232.96 43.9606 233.173 44.0511 233.463 44.1236L234.191 44.3026C234.63 44.4091 234.957 44.5721 235.173 44.7915C235.388 45.0089 235.495 45.2891 235.495 45.6321C235.495 45.9134 235.414 46.1648 235.252 46.3864C235.093 46.608 234.869 46.7827 234.581 46.9105C234.294 47.0384 233.959 47.1023 233.578 47.1023C233.077 47.1023 232.663 46.9936 232.335 46.7763C232.006 46.5589 231.799 46.2415 231.711 45.8239L232.427 45.6449C232.495 45.9091 232.624 46.1072 232.814 46.2393C233.006 46.3714 233.256 46.4375 233.565 46.4375C233.917 46.4375 234.196 46.3629 234.402 46.2138C234.611 46.0625 234.716 45.8814 234.716 45.6705C234.716 45.5 234.656 45.3572 234.537 45.2422C234.417 45.125 234.234 45.0376 233.987 44.9801L233.169 44.7884C232.719 44.6818 232.389 44.5167 232.178 44.293C231.969 44.0671 231.865 43.7848 231.865 43.446C231.865 43.169 231.942 42.924 232.098 42.7109C232.256 42.4979 232.47 42.3306 232.74 42.2092C233.013 42.0877 233.322 42.027 233.667 42.027C234.153 42.027 234.534 42.1335 234.811 42.3466C235.091 42.5597 235.289 42.8409 235.406 43.1903ZM240.274 47L238.778 42.0909H239.571L240.632 45.8494H240.683L241.732 42.0909H242.537L243.573 45.8366H243.624L244.685 42.0909H245.477L243.982 47H243.24L242.166 43.2287H242.09L241.016 47H240.274ZM248.366 47.1023C247.893 47.1023 247.485 46.9979 247.142 46.7891C246.801 46.5781 246.538 46.2841 246.352 45.907C246.169 45.5277 246.077 45.0866 246.077 44.5838C246.077 44.081 246.169 43.6378 246.352 43.2543C246.538 42.8686 246.795 42.5682 247.126 42.353C247.458 42.1357 247.846 42.027 248.289 42.027C248.545 42.027 248.797 42.0696 249.047 42.1548C249.296 42.2401 249.523 42.3786 249.727 42.5703C249.932 42.7599 250.095 43.0114 250.216 43.3246C250.338 43.6378 250.398 44.0234 250.398 44.4815V44.8011H246.614V44.1491H249.631C249.631 43.8722 249.576 43.625 249.465 43.4077C249.357 43.1903 249.201 43.0188 248.999 42.8931C248.798 42.7674 248.562 42.7045 248.289 42.7045C247.989 42.7045 247.729 42.7791 247.509 42.9283C247.292 43.0753 247.125 43.267 247.007 43.5036C246.89 43.7401 246.832 43.9936 246.832 44.2642V44.6989C246.832 45.0696 246.896 45.3839 247.023 45.6417C247.153 45.8974 247.333 46.0923 247.564 46.2266C247.794 46.3587 248.061 46.4247 248.366 46.4247C248.564 46.4247 248.743 46.397 248.903 46.3416C249.065 46.2841 249.204 46.1989 249.321 46.0859C249.439 45.9709 249.529 45.8281 249.593 45.6577L250.322 45.8622C250.245 46.1094 250.116 46.3267 249.935 46.5142C249.754 46.6996 249.53 46.8445 249.264 46.9489C248.998 47.0511 248.698 47.1023 248.366 47.1023ZM253.604 47.1023C253.131 47.1023 252.723 46.9979 252.38 46.7891C252.039 46.5781 251.776 46.2841 251.591 45.907C251.407 45.5277 251.316 45.0866 251.316 44.5838C251.316 44.081 251.407 43.6378 251.591 43.2543C251.776 42.8686 252.034 42.5682 252.364 42.353C252.696 42.1357 253.084 42.027 253.527 42.027C253.783 42.027 254.036 42.0696 254.285 42.1548C254.534 42.2401 254.761 42.3786 254.966 42.5703C255.17 42.7599 255.333 43.0114 255.455 43.3246C255.576 43.6378 255.637 44.0234 255.637 44.4815V44.8011H251.853V44.1491H254.87C254.87 43.8722 254.814 43.625 254.703 43.4077C254.595 43.1903 254.439 43.0188 254.237 42.8931C254.037 42.7674 253.8 42.7045 253.527 42.7045C253.227 42.7045 252.967 42.7791 252.748 42.9283C252.53 43.0753 252.363 43.267 252.246 43.5036C252.129 43.7401 252.07 43.9936 252.07 44.2642V44.6989C252.07 45.0696 252.134 45.3839 252.262 45.6417C252.392 45.8974 252.572 46.0923 252.802 46.2266C253.032 46.3587 253.299 46.4247 253.604 46.4247C253.802 46.4247 253.981 46.397 254.141 46.3416C254.303 46.2841 254.442 46.1989 254.56 46.0859C254.677 45.9709 254.767 45.8281 254.831 45.6577L255.56 45.8622C255.483 46.1094 255.354 46.3267 255.173 46.5142C254.992 46.6996 254.768 46.8445 254.502 46.9489C254.236 47.0511 253.936 47.1023 253.604 47.1023ZM257.487 45.2102L257.474 44.277H257.628L259.776 42.0909H260.709L258.42 44.4048H258.357L257.487 45.2102ZM256.784 47V40.4545H257.538V47H256.784ZM259.903 47L257.986 44.571L258.523 44.0469L260.862 47H259.903Z" fill="#A18EED"/>
<defs>
<filter id="filter0_d_1130_72" x="200" y="1" width="81" height="63" filterUnits="userSpaceOnUse" color-interpolation-filters="sRGB">
<feFlood flood-opacity="0" result="BackgroundImageFix"/>
<feColorMatrix in="SourceAlpha" type="matrix" values="0 0 0 0 0 0 0 0 0 0 0 0 0 0 0 0 0 0 127 0" result="hardAlpha"/>
<feMorphology radius="2" operator="dilate" in="SourceAlpha" result="effect1_dropShadow_1130_72"/>
<feOffset/>
<feGaussianBlur stdDeviation="4.5"/>
<feComposite in2="hardAlpha" operator="out"/>
<feColorMatrix type="matrix" values="0 0 0 0 0 0 0 0 0 0 0 0 0 0 0 0 0 0 0.04 0"/>
<feBlend mode="normal" in2="BackgroundImageFix" result="effect1_dropShadow_1130_72"/>
<feBlend mode="normal" in="SourceGraphic" in2="effect1_dropShadow_1130_72" result="shape"/>
</filter>
<filter id="filter1_d_1130_72" x="231" y="54" width="16" height="16" filterUnits="userSpaceOnUse" color-interpolation-filters="sRGB">
<feFlood flood-opacity="0" result="BackgroundImageFix"/>
<feColorMatrix in="SourceAlpha" type="matrix" values="0 0 0 0 0 0 0 0 0 0 0 0 0 0 0 0 0 0 127 0" result="hardAlpha"/>
<feOffset/>
<feGaussianBlur stdDeviation="2"/>
<feComposite in2="hardAlpha" operator="out"/>
<feColorMatrix type="matrix" values="0 0 0 0 0 0 0 0 0 0 0 0 0 0 0 0 0 0 0.25 0"/>
<feBlend mode="normal" in2="BackgroundImageFix" result="effect1_dropShadow_1130_72"/>
<feBlend mode="normal" in="SourceGraphic" in2="effect1_dropShadow_1130_72" result="shape"/>
</filter>
<linearGradient id="paint0_linear_1130_72" x1="134.738" y1="-1.45833" x2="121.741" y2="162.528" gradientUnits="userSpaceOnUse">
<stop stop-color="#0859DE"/>
<stop offset="1" stop-color="#6522CC" stop-opacity="0"/>
</linearGradient>
<linearGradient id="paint1_linear_1130_72" x1="13.5" y1="0.176796" x2="13.7558" y2="9.77278" gradientUnits="userSpaceOnUse">
<stop stop-color="#EBF6FF"/>
<stop offset="1" stop-color="#F7F0FF"/>
</linearGradient>
<linearGradient id="paint2_linear_1130_72" x1="34.8553" y1="36.25" x2="243.319" y2="52.2744" gradientUnits="userSpaceOnUse">
<stop stop-color="#0859DE"/>
<stop offset="1" stop-color="#6522CC"/>
</linearGradient>
<linearGradient id="paint3_linear_1130_72" x1="30" y1="81" x2="30" y2="165" gradientUnits="userSpaceOnUse">
<stop stop-color="#D1CDFF"/>
<stop offset="1" stop-color="#D1CDFF" stop-opacity="0"/>
</linearGradient>
<linearGradient id="paint4_linear_1130_72" x1="69" y1="118" x2="69" y2="165" gradientUnits="userSpaceOnUse">
<stop stop-color="#D1CDFF"/>
<stop offset="1" stop-color="#D1CDFF" stop-opacity="0"/>
</linearGradient>
<linearGradient id="paint5_linear_1130_72" x1="100" y1="15" x2="100" y2="165" gradientUnits="userSpaceOnUse">
<stop stop-color="#D1CDFF"/>
<stop offset="1" stop-color="#D1CDFF" stop-opacity="0"/>
</linearGradient>
<linearGradient id="paint6_linear_1130_72" x1="134" y1="82" x2="134" y2="165" gradientUnits="userSpaceOnUse">
<stop stop-color="#D1CDFF"/>
<stop offset="1" stop-color="#D1CDFF" stop-opacity="0"/>
</linearGradient>
<linearGradient id="paint7_linear_1130_72" x1="169" y1="75" x2="169" y2="165" gradientUnits="userSpaceOnUse">
<stop stop-color="#D1CDFF"/>
<stop offset="1" stop-color="#D1CDFF" stop-opacity="0"/>
</linearGradient>
<linearGradient id="paint8_linear_1130_72" x1="204" y1="90" x2="204" y2="165" gradientUnits="userSpaceOnUse">
<stop stop-color="#D1CDFF"/>
<stop offset="1" stop-color="#D1CDFF" stop-opacity="0"/>
</linearGradient>
<linearGradient id="paint9_linear_1130_72" x1="239" y1="66" x2="239" y2="165" gradientUnits="userSpaceOnUse">
<stop stop-color="#D1CDFF"/>
<stop offset="1" stop-color="#D1CDFF" stop-opacity="0"/>
</linearGradient>
</defs>
</svg>
