<svg width="28" height="20" viewBox="0 0 28 20" fill="none" xmlns="http://www.w3.org/2000/svg">
<path d="M26 0H2C1.46957 0 0.960859 0.210714 0.585786 0.585786C0.210714 0.960859 0 1.46957 0 2V18C0 18.5304 0.210714 19.0391 0.585786 19.4142C0.960859 19.7893 1.46957 20 2 20H26C26.5304 20 27.0391 19.7893 27.4142 19.4142C27.7893 19.0391 28 18.5304 28 18V2C28 1.46957 27.7893 0.960859 27.4142 0.585786C27.0391 0.210714 26.5304 0 26 0ZM26 18H2V2H26V18ZM24 10C24 10.2652 23.8946 10.5196 23.7071 10.7071C23.5196 10.8946 23.2652 11 23 11H5C4.73478 11 4.48043 10.8946 4.29289 10.7071C4.10536 10.5196 4 10.2652 4 10C4 9.73478 4.10536 9.48043 4.29289 9.29289C4.48043 9.10536 4.73478 9 5 9H23C23.2652 9 23.5196 9.10536 23.7071 9.29289C23.8946 9.48043 24 9.73478 24 10ZM24 6C24 6.26522 23.8946 6.51957 23.7071 6.70711C23.5196 6.89464 23.2652 7 23 7H5C4.73478 7 4.48043 6.89464 4.29289 6.70711C4.10536 6.51957 4 6.26522 4 6C4 5.73478 4.10536 5.48043 4.29289 5.29289C4.48043 5.10536 4.73478 5 5 5H23C23.2652 5 23.5196 5.10536 23.7071 5.29289C23.8946 5.48043 24 5.73478 24 6ZM7 14C7 14.2652 6.89464 14.5196 6.70711 14.7071C6.51957 14.8946 6.26522 15 6 15H5C4.73478 15 4.48043 14.8946 4.29289 14.7071C4.10536 14.5196 4 14.2652 4 14C4 13.7348 4.10536 13.4804 4.29289 13.2929C4.48043 13.1054 4.73478 13 5 13H6C6.26522 13 6.51957 13.1054 6.70711 13.2929C6.89464 13.4804 7 13.7348 7 14ZM19 14C19 14.2652 18.8946 14.5196 18.7071 14.7071C18.5196 14.8946 18.2652 15 18 15H10C9.73478 15 9.48043 14.8946 9.29289 14.7071C9.10536 14.5196 9 14.2652 9 14C9 13.7348 9.10536 13.4804 9.29289 13.2929C9.48043 13.1054 9.73478 13 10 13H18C18.2652 13 18.5196 13.1054 18.7071 13.2929C18.8946 13.4804 19 13.7348 19 14ZM24 14C24 14.2652 23.8946 14.5196 23.7071 14.7071C23.5196 14.8946 23.2652 15 23 15H22C21.7348 15 21.4804 14.8946 21.2929 14.7071C21.1054 14.5196 21 14.2652 21 14C21 13.7348 21.1054 13.4804 21.2929 13.2929C21.4804 13.1054 21.7348 13 22 13H23C23.2652 13 23.5196 13.1054 23.7071 13.2929C23.8946 13.4804 24 13.7348 24 14Z" fill="#5B36A9"/>
</svg>
