<svg width="12" height="12" viewBox="0 0 12 12" fill="none" xmlns="http://www.w3.org/2000/svg">
<path d="M5.6875 0C4.56262 0 3.463 0.333566 2.5277 0.958517C1.59239 1.58347 0.863411 2.47173 0.432938 3.51099C0.00246431 4.55024 -0.110167 5.69381 0.109286 6.79708C0.32874 7.90034 0.870422 8.91376 1.66583 9.70917C2.46124 10.5046 3.47466 11.0463 4.57793 11.2657C5.68119 11.4852 6.82476 11.3725 7.86401 10.9421C8.90327 10.5116 9.79154 9.78261 10.4165 8.84731C11.0414 7.912 11.375 6.81238 11.375 5.6875C11.3734 4.17957 10.7737 2.73386 9.70741 1.66759C8.64115 0.601321 7.19543 0.0015924 5.6875 0ZM8.18453 4.68453L5.12203 7.74703C5.0814 7.78771 5.03315 7.81998 4.98004 7.842C4.92693 7.86401 4.87 7.87534 4.8125 7.87534C4.75501 7.87534 4.69808 7.86401 4.64497 7.842C4.59185 7.81998 4.5436 7.78771 4.50297 7.74703L3.19047 6.43453C3.10838 6.35244 3.06226 6.2411 3.06226 6.125C3.06226 6.0089 3.10838 5.89756 3.19047 5.81547C3.27256 5.73338 3.38391 5.68726 3.5 5.68726C3.6161 5.68726 3.72744 5.73338 3.80953 5.81547L4.8125 6.81898L7.56547 4.06547C7.60612 4.02482 7.65438 3.99258 7.70749 3.97058C7.76059 3.94858 7.81752 3.93726 7.875 3.93726C7.93249 3.93726 7.98941 3.94858 8.04252 3.97058C8.09563 3.99258 8.14389 4.02482 8.18453 4.06547C8.22518 4.10612 8.25743 4.15437 8.27942 4.20748C8.30142 4.26059 8.31275 4.31751 8.31275 4.375C8.31275 4.43249 8.30142 4.48941 8.27942 4.54252C8.25743 4.59563 8.22518 4.64388 8.18453 4.68453Z" fill="#6FBB80"/>
</svg>
