<svg width="8" height="9" viewBox="0 0 8 9" fill="none" xmlns="http://www.w3.org/2000/svg">
<path d="M4 1.55172C3.20888 1.55172 2.43552 1.77014 1.77772 2.17935C1.11992 2.58857 0.607234 3.1702 0.304484 3.8507C0.00173314 4.53119 -0.0774802 5.27999 0.0768607 6.0024C0.231201 6.72482 0.612164 7.38839 1.17157 7.90922C1.73098 8.43005 2.44372 8.78474 3.21964 8.92844C3.99556 9.07214 4.79983 8.99839 5.53073 8.71652C6.26164 8.43464 6.88635 7.95731 7.32588 7.34488C7.7654 6.73245 8 6.01243 8 5.27586C7.99879 4.28851 7.57697 3.34191 6.82709 2.64375C6.07721 1.94558 5.06049 1.55285 4 1.55172ZM4 8.06896C3.40666 8.06896 2.82664 7.90515 2.33329 7.59824C1.83994 7.29133 1.45543 6.85511 1.22836 6.34474C1.0013 5.83436 0.94189 5.27276 1.05765 4.73095C1.1734 4.18915 1.45912 3.69146 1.87868 3.30084C2.29824 2.91022 2.83279 2.6442 3.41473 2.53643C3.99667 2.42865 4.59987 2.48397 5.14805 2.69537C5.69623 2.90677 6.16477 3.26477 6.49441 3.7241C6.82405 4.18342 7 4.72344 7 5.27586C6.99912 6.01639 6.68276 6.72635 6.12035 7.24998C5.55793 7.77361 4.79538 8.06814 4 8.06896ZM5.52042 3.70513C5.56703 3.74838 5.60402 3.79977 5.62925 3.85635C5.65449 3.91294 5.66748 3.9736 5.66748 4.03487C5.66748 4.09614 5.65449 4.1568 5.62925 4.21339C5.60402 4.26997 5.56703 4.32136 5.52042 4.36461L4.35375 5.45082C4.25982 5.53827 4.13242 5.5874 3.99958 5.5874C3.86675 5.5874 3.73935 5.53827 3.64542 5.45082C3.55149 5.36337 3.49872 5.24475 3.49872 5.12108C3.49872 4.9974 3.55149 4.87879 3.64542 4.79134L4.81208 3.70513C4.85854 3.66173 4.91373 3.6273 4.97451 3.6038C5.03528 3.5803 5.10044 3.56821 5.16625 3.56821C5.23206 3.56821 5.29722 3.5803 5.35799 3.6038C5.41877 3.6273 5.47397 3.66173 5.52042 3.70513ZM2.5 0.465517C2.5 0.342054 2.55268 0.223648 2.64645 0.136347C2.74022 0.0490454 2.86739 0 3 0H5C5.13261 1.83974e-09 5.25979 0.0490454 5.35355 0.136347C5.44732 0.223648 5.5 0.342054 5.5 0.465517C5.5 0.58898 5.44732 0.707386 5.35355 0.794688C5.25979 0.881989 5.13261 0.931034 5 0.931034H3C2.86739 0.931034 2.74022 0.881989 2.64645 0.794688C2.55268 0.707386 2.5 0.58898 2.5 0.465517Z" fill="#B16C6C"/>
</svg>
