<svg width="24" height="14" viewBox="0 0 24 14" fill="none" xmlns="http://www.w3.org/2000/svg">
<path d="M24 7C24 7.26522 23.8946 7.51957 23.7071 7.70711C23.5196 7.89464 23.2652 8 23 8H9C8.73478 8 8.48043 7.89464 8.29289 7.70711C8.10536 7.51957 8 7.26522 8 7C8 6.73478 8.10536 6.48043 8.29289 6.29289C8.48043 6.10536 8.73478 6 9 6H23C23.2652 6 23.5196 6.10536 23.7071 6.29289C23.8946 6.48043 24 6.73478 24 7ZM23 0H1C0.734784 0 0.48043 0.105357 0.292893 0.292893C0.105357 0.48043 0 0.734784 0 1C0 1.26522 0.105357 1.51957 0.292893 1.70711C0.48043 1.89464 0.734784 2 1 2H23C23.2652 2 23.5196 1.89464 23.7071 1.70711C23.8946 1.51957 24 1.26522 24 1C24 0.734784 23.8946 0.48043 23.7071 0.292893C23.5196 0.105357 23.2652 0 23 0ZM23 12H17C16.7348 12 16.4804 12.1054 16.2929 12.2929C16.1054 12.4804 16 12.7348 16 13C16 13.2652 16.1054 13.5196 16.2929 13.7071C16.4804 13.8946 16.7348 14 17 14H23C23.2652 14 23.5196 13.8946 23.7071 13.7071C23.8946 13.5196 24 13.2652 24 13C24 12.7348 23.8946 12.4804 23.7071 12.2929C23.5196 12.1054 23.2652 12 23 12Z" fill="#5D5D5D"/>
</svg>
