<svg width="274" height="131" viewBox="0 0 274 131" fill="none" xmlns="http://www.w3.org/2000/svg">
<path d="M0.74 117.44C0.74 116.333 0.966667 115.353 1.42 114.5C1.88667 113.647 2.51333 112.987 3.3 112.52C4.1 112.04 4.98667 111.8 5.96 111.8C6.68 111.8 7.38667 111.96 8.08 112.28C8.78667 112.587 9.34667 113 9.76 113.52V108.2H12.06V123H9.76V121.34C9.38667 121.873 8.86667 122.313 8.2 122.66C7.54667 123.007 6.79333 123.18 5.94 123.18C4.98 123.18 4.1 122.94 3.3 122.46C2.51333 121.967 1.88667 121.287 1.42 120.42C0.966667 119.54 0.74 118.547 0.74 117.44ZM9.76 117.48C9.76 116.72 9.6 116.06 9.28 115.5C8.97333 114.94 8.56667 114.513 8.06 114.22C7.55333 113.927 7.00667 113.78 6.42 113.78C5.83333 113.78 5.28667 113.927 4.78 114.22C4.27333 114.5 3.86 114.92 3.54 115.48C3.23333 116.027 3.08 116.68 3.08 117.44C3.08 118.2 3.23333 118.867 3.54 119.44C3.86 120.013 4.27333 120.453 4.78 120.76C5.3 121.053 5.84667 121.2 6.42 121.2C7.00667 121.2 7.55333 121.053 8.06 120.76C8.56667 120.467 8.97333 120.04 9.28 119.48C9.6 118.907 9.76 118.24 9.76 117.48ZM17.3347 113.58C17.668 113.02 18.108 112.587 18.6547 112.28C19.2147 111.96 19.8747 111.8 20.6347 111.8V114.16H20.0547C19.1614 114.16 18.4814 114.387 18.0147 114.84C17.5614 115.293 17.3347 116.08 17.3347 117.2V123H15.0547V111.98H17.3347V113.58ZM21.9705 117.44C21.9705 116.333 22.1971 115.353 22.6505 114.5C23.1171 113.647 23.7438 112.987 24.5305 112.52C25.3305 112.04 26.2105 111.8 27.1705 111.8C28.0371 111.8 28.7905 111.973 29.4305 112.32C30.0838 112.653 30.6038 113.073 30.9905 113.58V111.98H33.2905V123H30.9905V121.36C30.6038 121.88 30.0771 122.313 29.4105 122.66C28.7438 123.007 27.9838 123.18 27.1305 123.18C26.1838 123.18 25.3171 122.94 24.5305 122.46C23.7438 121.967 23.1171 121.287 22.6505 120.42C22.1971 119.54 21.9705 118.547 21.9705 117.44ZM30.9905 117.48C30.9905 116.72 30.8305 116.06 30.5105 115.5C30.2038 114.94 29.7971 114.513 29.2905 114.22C28.7838 113.927 28.2371 113.78 27.6505 113.78C27.0638 113.78 26.5171 113.927 26.0105 114.22C25.5038 114.5 25.0905 114.92 24.7705 115.48C24.4638 116.027 24.3105 116.68 24.3105 117.44C24.3105 118.2 24.4638 118.867 24.7705 119.44C25.0905 120.013 25.5038 120.453 26.0105 120.76C26.5305 121.053 27.0771 121.2 27.6505 121.2C28.2371 121.2 28.7838 121.053 29.2905 120.76C29.7971 120.467 30.2038 120.04 30.5105 119.48C30.8305 118.907 30.9905 118.24 30.9905 117.48ZM40.7252 111.8C41.5785 111.8 42.3318 111.973 42.9852 112.32C43.6518 112.653 44.1718 113.073 44.5452 113.58V111.98H46.8452V123.18C46.8452 124.193 46.6318 125.093 46.2052 125.88C45.7785 126.68 45.1585 127.307 44.3452 127.76C43.5452 128.213 42.5852 128.44 41.4652 128.44C39.9718 128.44 38.7318 128.087 37.7452 127.38C36.7585 126.687 36.1985 125.74 36.0652 124.54H38.3252C38.4985 125.113 38.8652 125.573 39.4252 125.92C39.9985 126.28 40.6785 126.46 41.4652 126.46C42.3852 126.46 43.1252 126.18 43.6852 125.62C44.2585 125.06 44.5452 124.247 44.5452 123.18V121.34C44.1585 121.86 43.6318 122.3 42.9652 122.66C42.3118 123.007 41.5652 123.18 40.7252 123.18C39.7652 123.18 38.8852 122.94 38.0852 122.46C37.2985 121.967 36.6718 121.287 36.2052 120.42C35.7518 119.54 35.5252 118.547 35.5252 117.44C35.5252 116.333 35.7518 115.353 36.2052 114.5C36.6718 113.647 37.2985 112.987 38.0852 112.52C38.8852 112.04 39.7652 111.8 40.7252 111.8ZM44.5452 117.48C44.5452 116.72 44.3852 116.06 44.0652 115.5C43.7585 114.94 43.3518 114.513 42.8452 114.22C42.3385 113.927 41.7918 113.78 41.2052 113.78C40.6185 113.78 40.0718 113.927 39.5652 114.22C39.0585 114.5 38.6452 114.92 38.3252 115.48C38.0185 116.027 37.8652 116.68 37.8652 117.44C37.8652 118.2 38.0185 118.867 38.3252 119.44C38.6452 120.013 39.0585 120.453 39.5652 120.76C40.0852 121.053 40.6318 121.2 41.2052 121.2C41.7918 121.2 42.3385 121.053 42.8452 120.76C43.3518 120.467 43.7585 120.04 44.0652 119.48C44.3852 118.907 44.5452 118.24 44.5452 117.48ZM54.2752 117.44C54.2752 116.333 54.5018 115.353 54.9552 114.5C55.4218 113.647 56.0485 112.987 56.8352 112.52C57.6352 112.04 58.5152 111.8 59.4752 111.8C60.3418 111.8 61.0952 111.973 61.7352 112.32C62.3885 112.653 62.9085 113.073 63.2952 113.58V111.98H65.5952V123H63.2952V121.36C62.9085 121.88 62.3818 122.313 61.7152 122.66C61.0485 123.007 60.2885 123.18 59.4352 123.18C58.4885 123.18 57.6218 122.94 56.8352 122.46C56.0485 121.967 55.4218 121.287 54.9552 120.42C54.5018 119.54 54.2752 118.547 54.2752 117.44ZM63.2952 117.48C63.2952 116.72 63.1352 116.06 62.8152 115.5C62.5085 114.94 62.1018 114.513 61.5952 114.22C61.0885 113.927 60.5418 113.78 59.9552 113.78C59.3685 113.78 58.8218 113.927 58.3152 114.22C57.8085 114.5 57.3952 114.92 57.0752 115.48C56.7685 116.027 56.6152 116.68 56.6152 117.44C56.6152 118.2 56.7685 118.867 57.0752 119.44C57.3952 120.013 57.8085 120.453 58.3152 120.76C58.8352 121.053 59.3818 121.2 59.9552 121.2C60.5418 121.2 61.0885 121.053 61.5952 120.76C62.1018 120.467 62.5085 120.04 62.8152 119.48C63.1352 118.907 63.2952 118.24 63.2952 117.48ZM74.1498 111.8C75.0165 111.8 75.7898 111.98 76.4698 112.34C77.1632 112.7 77.7032 113.233 78.0898 113.94C78.4765 114.647 78.6698 115.5 78.6698 116.5V123H76.4098V116.84C76.4098 115.853 76.1632 115.1 75.6698 114.58C75.1765 114.047 74.5032 113.78 73.6498 113.78C72.7965 113.78 72.1165 114.047 71.6098 114.58C71.1165 115.1 70.8698 115.853 70.8698 116.84V123H68.5898V111.98H70.8698V113.24C71.2432 112.787 71.7165 112.433 72.2898 112.18C72.8765 111.927 73.4965 111.8 74.1498 111.8ZM80.8181 117.44C80.8181 116.333 81.0448 115.353 81.4981 114.5C81.9648 113.647 82.5915 112.987 83.3781 112.52C84.1781 112.04 85.0648 111.8 86.0381 111.8C86.7581 111.8 87.4648 111.96 88.1581 112.28C88.8648 112.587 89.4248 113 89.8381 113.52V108.2H92.1381V123H89.8381V121.34C89.4648 121.873 88.9448 122.313 88.2781 122.66C87.6248 123.007 86.8715 123.18 86.0181 123.18C85.0581 123.18 84.1781 122.94 83.3781 122.46C82.5915 121.967 81.9648 121.287 81.4981 120.42C81.0448 119.54 80.8181 118.547 80.8181 117.44ZM89.8381 117.48C89.8381 116.72 89.6781 116.06 89.3581 115.5C89.0515 114.94 88.6448 114.513 88.1381 114.22C87.6315 113.927 87.0848 113.78 86.4981 113.78C85.9115 113.78 85.3648 113.927 84.8581 114.22C84.3515 114.5 83.9381 114.92 83.6181 115.48C83.3115 116.027 83.1581 116.68 83.1581 117.44C83.1581 118.2 83.3115 118.867 83.6181 119.44C83.9381 120.013 84.3515 120.453 84.8581 120.76C85.3781 121.053 85.9248 121.2 86.4981 121.2C87.0848 121.2 87.6315 121.053 88.1381 120.76C88.6448 120.467 89.0515 120.04 89.3581 119.48C89.6781 118.907 89.8381 118.24 89.8381 117.48ZM99.5681 117.44C99.5681 116.333 99.7948 115.353 100.248 114.5C100.715 113.647 101.341 112.987 102.128 112.52C102.928 112.04 103.815 111.8 104.788 111.8C105.508 111.8 106.215 111.96 106.908 112.28C107.615 112.587 108.175 113 108.588 113.52V108.2H110.888V123H108.588V121.34C108.215 121.873 107.695 122.313 107.028 122.66C106.375 123.007 105.621 123.18 104.768 123.18C103.808 123.18 102.928 122.94 102.128 122.46C101.341 121.967 100.715 121.287 100.248 120.42C99.7948 119.54 99.5681 118.547 99.5681 117.44ZM108.588 117.48C108.588 116.72 108.428 116.06 108.108 115.5C107.801 114.94 107.395 114.513 106.888 114.22C106.381 113.927 105.835 113.78 105.248 113.78C104.661 113.78 104.115 113.927 103.608 114.22C103.101 114.5 102.688 114.92 102.368 115.48C102.061 116.027 101.908 116.68 101.908 117.44C101.908 118.2 102.061 118.867 102.368 119.44C102.688 120.013 103.101 120.453 103.608 120.76C104.128 121.053 104.675 121.2 105.248 121.2C105.835 121.2 106.381 121.053 106.888 120.76C107.395 120.467 107.801 120.04 108.108 119.48C108.428 118.907 108.588 118.24 108.588 117.48ZM116.163 113.58C116.496 113.02 116.936 112.587 117.483 112.28C118.043 111.96 118.703 111.8 119.463 111.8V114.16H118.883C117.989 114.16 117.309 114.387 116.843 114.84C116.389 115.293 116.163 116.08 116.163 117.2V123H113.883V111.98H116.163V113.58ZM126.339 123.18C125.299 123.18 124.359 122.947 123.519 122.48C122.679 122 122.019 121.333 121.539 120.48C121.059 119.613 120.819 118.613 120.819 117.48C120.819 116.36 121.065 115.367 121.559 114.5C122.052 113.633 122.725 112.967 123.579 112.5C124.432 112.033 125.385 111.8 126.439 111.8C127.492 111.8 128.445 112.033 129.299 112.5C130.152 112.967 130.825 113.633 131.319 114.5C131.812 115.367 132.059 116.36 132.059 117.48C132.059 118.6 131.805 119.593 131.299 120.46C130.792 121.327 130.099 122 129.219 122.48C128.352 122.947 127.392 123.18 126.339 123.18ZM126.339 121.2C126.925 121.2 127.472 121.06 127.979 120.78C128.499 120.5 128.919 120.08 129.239 119.52C129.559 118.96 129.719 118.28 129.719 117.48C129.719 116.68 129.565 116.007 129.259 115.46C128.952 114.9 128.545 114.48 128.039 114.2C127.532 113.92 126.985 113.78 126.399 113.78C125.812 113.78 125.265 113.92 124.759 114.2C124.265 114.48 123.872 114.9 123.579 115.46C123.285 116.007 123.139 116.68 123.139 117.48C123.139 118.667 123.439 119.587 124.039 120.24C124.652 120.88 125.419 121.2 126.339 121.2ZM136.593 113.6C136.979 113.093 137.506 112.667 138.173 112.32C138.839 111.973 139.593 111.8 140.433 111.8C141.393 111.8 142.266 112.04 143.053 112.52C143.853 112.987 144.479 113.647 144.933 114.5C145.386 115.353 145.613 116.333 145.613 117.44C145.613 118.547 145.386 119.54 144.933 120.42C144.479 121.287 143.853 121.967 143.053 122.46C142.266 122.94 141.393 123.18 140.433 123.18C139.593 123.18 138.846 123.013 138.193 122.68C137.539 122.333 137.006 121.907 136.593 121.4V128.24H134.313V111.98H136.593V113.6ZM143.293 117.44C143.293 116.68 143.133 116.027 142.812 115.48C142.506 114.92 142.093 114.5 141.573 114.22C141.066 113.927 140.519 113.78 139.933 113.78C139.359 113.78 138.813 113.927 138.293 114.22C137.786 114.513 137.373 114.94 137.053 115.5C136.746 116.06 136.593 116.72 136.593 117.48C136.593 118.24 136.746 118.907 137.053 119.48C137.373 120.04 137.786 120.467 138.293 120.76C138.813 121.053 139.359 121.2 139.933 121.2C140.519 121.2 141.066 121.053 141.573 120.76C142.093 120.453 142.506 120.013 142.812 119.44C143.133 118.867 143.293 118.2 143.293 117.44ZM157.843 123.18C156.803 123.18 155.863 122.947 155.023 122.48C154.183 122 153.523 121.333 153.043 120.48C152.563 119.613 152.323 118.613 152.323 117.48C152.323 116.36 152.569 115.367 153.063 114.5C153.556 113.633 154.229 112.967 155.083 112.5C155.936 112.033 156.889 111.8 157.943 111.8C158.996 111.8 159.949 112.033 160.803 112.5C161.656 112.967 162.329 113.633 162.823 114.5C163.316 115.367 163.563 116.36 163.563 117.48C163.563 118.6 163.309 119.593 162.803 120.46C162.296 121.327 161.603 122 160.723 122.48C159.856 122.947 158.896 123.18 157.843 123.18ZM157.843 121.2C158.429 121.2 158.976 121.06 159.483 120.78C160.003 120.5 160.423 120.08 160.743 119.52C161.063 118.96 161.223 118.28 161.223 117.48C161.223 116.68 161.069 116.007 160.763 115.46C160.456 114.9 160.049 114.48 159.543 114.2C159.036 113.92 158.489 113.78 157.903 113.78C157.316 113.78 156.769 113.92 156.263 114.2C155.769 114.48 155.376 114.9 155.083 115.46C154.789 116.007 154.643 116.68 154.643 117.48C154.643 118.667 154.943 119.587 155.543 120.24C156.156 120.88 156.923 121.2 157.843 121.2ZM168.096 113.58C168.43 113.02 168.87 112.587 169.416 112.28C169.976 111.96 170.636 111.8 171.396 111.8V114.16H170.816C169.923 114.16 169.243 114.387 168.776 114.84C168.323 115.293 168.096 116.08 168.096 117.2V123H165.816V111.98H168.096V113.58ZM177.928 117.48C177.928 116.347 178.154 115.353 178.608 114.5C179.074 113.633 179.714 112.967 180.528 112.5C181.341 112.033 182.274 111.8 183.328 111.8C184.661 111.8 185.761 112.12 186.628 112.76C187.508 113.387 188.101 114.287 188.408 115.46H185.948C185.748 114.913 185.428 114.487 184.988 114.18C184.548 113.873 183.994 113.72 183.328 113.72C182.394 113.72 181.648 114.053 181.088 114.72C180.541 115.373 180.268 116.293 180.268 117.48C180.268 118.667 180.541 119.593 181.088 120.26C181.648 120.927 182.394 121.26 183.328 121.26C184.648 121.26 185.521 120.68 185.948 119.52H188.408C188.088 120.64 187.488 121.533 186.608 122.2C185.728 122.853 184.634 123.18 183.328 123.18C182.274 123.18 181.341 122.947 180.528 122.48C179.714 122 179.074 121.333 178.608 120.48C178.154 119.613 177.928 118.613 177.928 117.48ZM192.96 108.2V123H190.68V108.2H192.96ZM197.113 110.52C196.7 110.52 196.353 110.38 196.073 110.1C195.793 109.82 195.653 109.473 195.653 109.06C195.653 108.647 195.793 108.3 196.073 108.02C196.353 107.74 196.7 107.6 197.113 107.6C197.513 107.6 197.853 107.74 198.133 108.02C198.413 108.3 198.553 108.647 198.553 109.06C198.553 109.473 198.413 109.82 198.133 110.1C197.853 110.38 197.513 110.52 197.113 110.52ZM198.233 111.98V123H195.953V111.98H198.233ZM200.467 117.48C200.467 116.347 200.693 115.353 201.147 114.5C201.613 113.633 202.253 112.967 203.067 112.5C203.88 112.033 204.813 111.8 205.867 111.8C207.2 111.8 208.3 112.12 209.167 112.76C210.047 113.387 210.64 114.287 210.947 115.46H208.487C208.287 114.913 207.967 114.487 207.527 114.18C207.087 113.873 206.533 113.72 205.867 113.72C204.933 113.72 204.187 114.053 203.627 114.72C203.08 115.373 202.807 116.293 202.807 117.48C202.807 118.667 203.08 119.593 203.627 120.26C204.187 120.927 204.933 121.26 205.867 121.26C207.187 121.26 208.06 120.68 208.487 119.52H210.947C210.627 120.64 210.027 121.533 209.147 122.2C208.267 122.853 207.173 123.18 205.867 123.18C204.813 123.18 203.88 122.947 203.067 122.48C202.253 122 201.613 121.333 201.147 120.48C200.693 119.613 200.467 118.613 200.467 117.48ZM217.579 117.5L222.659 123H219.579L215.499 118.26V123H213.219V108.2H215.499V116.8L219.499 111.98H222.659L217.579 117.5ZM235.188 111.8C236.028 111.8 236.775 111.98 237.428 112.34C238.095 112.7 238.615 113.233 238.988 113.94C239.375 114.647 239.568 115.5 239.568 116.5V123H237.308V116.84C237.308 115.853 237.062 115.1 236.568 114.58C236.075 114.047 235.402 113.78 234.548 113.78C233.695 113.78 233.015 114.047 232.508 114.58C232.015 115.1 231.768 115.853 231.768 116.84V123H229.488V108.2H231.768V113.26C232.155 112.793 232.642 112.433 233.228 112.18C233.828 111.927 234.482 111.8 235.188 111.8ZM252.577 117.22C252.577 117.633 252.55 118.007 252.497 118.34H244.077C244.143 119.22 244.47 119.927 245.057 120.46C245.643 120.993 246.363 121.26 247.217 121.26C248.443 121.26 249.31 120.747 249.817 119.72H252.277C251.943 120.733 251.337 121.567 250.457 122.22C249.59 122.86 248.51 123.18 247.217 123.18C246.163 123.18 245.217 122.947 244.377 122.48C243.55 122 242.897 121.333 242.417 120.48C241.95 119.613 241.717 118.613 241.717 117.48C241.717 116.347 241.943 115.353 242.397 114.5C242.863 113.633 243.51 112.967 244.337 112.5C245.177 112.033 246.137 111.8 247.217 111.8C248.257 111.8 249.183 112.027 249.997 112.48C250.81 112.933 251.443 113.573 251.897 114.4C252.35 115.213 252.577 116.153 252.577 117.22ZM250.197 116.5C250.183 115.66 249.883 114.987 249.297 114.48C248.71 113.973 247.983 113.72 247.117 113.72C246.33 113.72 245.657 113.973 245.097 114.48C244.537 114.973 244.203 115.647 244.097 116.5H250.197ZM257.1 113.58C257.434 113.02 257.874 112.587 258.42 112.28C258.98 111.96 259.64 111.8 260.4 111.8V114.16H259.82C258.927 114.16 258.247 114.387 257.78 114.84C257.327 115.293 257.1 116.08 257.1 117.2V123H254.82V111.98H257.1V113.58ZM272.596 117.22C272.596 117.633 272.569 118.007 272.516 118.34H264.096C264.163 119.22 264.489 119.927 265.076 120.46C265.663 120.993 266.383 121.26 267.236 121.26C268.463 121.26 269.329 120.747 269.836 119.72H272.296C271.963 120.733 271.356 121.567 270.476 122.22C269.609 122.86 268.529 123.18 267.236 123.18C266.183 123.18 265.236 122.947 264.396 122.48C263.569 122 262.916 121.333 262.436 120.48C261.969 119.613 261.736 118.613 261.736 117.48C261.736 116.347 261.963 115.353 262.416 114.5C262.883 113.633 263.529 112.967 264.356 112.5C265.196 112.033 266.156 111.8 267.236 111.8C268.276 111.8 269.203 112.027 270.016 112.48C270.829 112.933 271.463 113.573 271.916 114.4C272.369 115.213 272.596 116.153 272.596 117.22ZM270.216 116.5C270.203 115.66 269.903 114.987 269.316 114.48C268.729 113.973 268.003 113.72 267.136 113.72C266.349 113.72 265.676 113.973 265.116 114.48C264.556 114.973 264.223 115.647 264.116 116.5H270.216Z" fill="#868686"/>
<g clip-path="url(#clip0_1191_169)">
<path d="M117.266 12.7188C117.266 13.6387 116.91 14.521 116.277 15.1715C115.644 15.822 114.786 16.1875 113.891 16.1875C112.996 16.1875 112.137 15.822 111.504 15.1715C110.871 14.521 110.516 13.6387 110.516 12.7188C110.516 11.7988 110.871 10.9165 111.504 10.266C112.137 9.61546 112.996 9.25 113.891 9.25C114.786 9.25 115.644 9.61546 116.277 10.266C116.91 10.9165 117.266 11.7988 117.266 12.7188Z" fill="#BCBCBC"/>
<path d="M126.262 0H108.262C107.068 0 105.924 0.487275 105.08 1.35463C104.236 2.22199 103.762 3.39837 103.762 4.625V32.375C103.762 33.6016 104.236 34.778 105.08 35.6454C105.924 36.5127 107.068 37 108.262 37H126.262C127.455 37 128.6 36.5127 129.444 35.6454C130.288 34.778 130.762 33.6016 130.762 32.375V4.625C130.762 3.39837 130.288 2.22199 129.444 1.35463C128.6 0.487275 127.455 0 126.262 0V0ZM106.012 4.625C106.012 4.01169 106.249 3.42349 106.671 2.98982C107.093 2.55614 107.665 2.3125 108.262 2.3125H126.262C126.858 2.3125 127.431 2.55614 127.853 2.98982C128.275 3.42349 128.512 4.01169 128.512 4.625V23.125L123.825 18.3081C123.709 18.1895 123.57 18.0982 123.417 18.0405C123.264 17.9828 123.1 17.9601 122.937 17.974C122.774 17.9878 122.617 18.0379 122.475 18.1208C122.333 18.2036 122.21 18.3173 122.115 18.4538L117.262 25.4375L112.39 22.4312C112.175 22.2987 111.923 22.244 111.674 22.2758C111.425 22.3077 111.193 22.4243 111.016 22.607L106.012 27.75V4.625Z" fill="#BCBCBC"/>
</g>
<path d="M137.674 61.2594C136.326 50.6466 127.24 42.4141 116.263 42.4141C107.765 42.4141 100.384 47.3813 97.0138 55.2099C90.3908 57.1894 85.4297 63.4424 85.4297 70.1641C85.4297 78.6648 92.3456 85.5807 100.846 85.5807H134.763C141.565 85.5807 147.096 80.0492 147.096 73.2474C147.092 70.4835 146.161 67.8009 144.453 65.628C142.745 63.455 140.358 61.9169 137.674 61.2594ZM119.346 70.1641V79.4141H113.18V70.1641H103.93L116.263 54.7474L128.596 70.1641H119.346Z" fill="#BCBCBC"/>
<ellipse cx="116.262" cy="96.5" rx="28" ry="4.5" fill="#E2E2E2"/>
<g clip-path="url(#clip1_1191_169)">
<path d="M79.1927 44.4328C78.9531 44.6009 78.807 44.7379 78.7396 44.8198L79.8174 46.3567C79.9329 46.3103 80.0623 46.2291 80.2324 46.1098C80.8572 45.6716 81.0214 45.0837 80.6482 44.5517C80.313 44.0737 79.7801 44.0208 79.1927 44.4328Z" fill="#BCBCBC"/>
<path d="M75.8431 22.6137L65.5374 29.8415C64.8541 30.3207 64.3891 31.0518 64.2448 31.8738C64.1005 32.6959 64.2887 33.5416 64.7679 34.2249L79.2235 54.8364C79.7028 55.5197 80.4338 55.9846 81.2559 56.1289C82.0779 56.2732 82.9236 56.0851 83.6069 55.6059L99.0656 44.7641C99.7489 44.2849 100.214 43.5538 100.358 42.7318C100.502 41.9097 100.314 41.064 99.835 40.3807L88.9933 24.9221L75.8431 22.6137ZM82.1842 45.2743C82.0457 45.9345 81.572 46.5223 80.8777 47.0093C80.7231 47.1177 80.5764 47.2072 80.4586 47.2667L81.7641 49.1282L80.597 49.9468L76.9948 44.8106C77.4656 44.362 77.9727 43.953 78.5108 43.5879C79.2361 43.0792 79.8519 42.853 80.3936 42.8882C80.9102 42.9179 81.438 43.1935 81.7957 43.7037C82.1535 44.2138 82.2874 44.7637 82.1842 45.2743ZM89.4003 43.7746L88.1636 44.6419L85.6424 43.412C84.943 43.0723 84.1322 42.6397 83.4501 42.207L83.4311 42.2319C83.9445 42.8982 84.4749 43.6216 85.0703 44.4705L86.1707 46.0396L85.0886 46.7985L81.4368 41.5915L82.8113 40.6275L85.2315 41.7765C85.9255 42.1084 86.6887 42.5417 87.3317 42.9652L87.3562 42.9481C86.7756 42.2796 86.2338 41.5784 85.7333 40.8479L84.6654 39.3252L85.7475 38.5663L89.4003 43.7746ZM94.6028 39.7684C94.1721 40.3475 93.6555 40.8575 93.071 41.2809C92.1216 41.9467 91.2656 42.1896 90.4599 42.0628C89.6675 41.9497 88.9286 41.4551 88.3997 40.6845C87.1931 38.9477 87.7588 37.077 89.4669 35.8789C90.1381 35.4082 90.7503 35.1768 91.0899 35.1212L91.5043 36.2355C91.1316 36.3124 90.7056 36.4612 90.1349 36.8615C89.1533 37.5499 88.8016 38.6269 89.593 39.7553C90.3456 40.8284 91.4626 40.9906 92.4274 40.3139C92.698 40.1242 92.8927 39.9415 92.952 39.8288L92.1877 38.7389L91.3838 39.3027L90.7397 38.3842L92.6784 37.0245L94.6028 39.7684ZM82.1675 31.6312L80.8793 32.5347L76.3619 26.0936L87.3203 28.0173L82.1675 31.6312Z" fill="#BCBCBC"/>
</g>
<g clip-path="url(#clip2_1191_169)">
<path d="M149.839 55.5179L135.183 45.0876C134.535 44.6266 134.097 43.9271 133.965 43.143C133.833 42.3589 134.018 41.5544 134.479 40.9066L148.386 21.3656C148.847 20.7178 149.546 20.2796 150.331 20.1475C151.115 20.0155 151.919 20.2003 152.567 20.6613L161.116 26.7457C161.128 26.752 161.139 26.7599 161.149 26.7691L161.156 26.7744C161.165 26.7862 161.175 26.7971 161.187 26.8069C161.289 26.8907 161.38 26.9871 161.459 27.0943L161.51 27.1308C161.521 27.1626 161.53 27.1953 161.536 27.2285C161.627 27.3824 161.689 27.5514 161.72 27.7275L163.833 40.2705C163.861 40.4469 163.858 40.627 163.822 40.8022C163.814 40.8361 163.804 40.8697 163.793 40.9028L163.781 40.9457C163.743 41.0714 163.687 41.1915 163.617 41.3033C163.609 41.3163 163.603 41.3303 163.6 41.3448L163.595 41.3522C163.591 41.3616 163.586 41.3706 163.581 41.3792L154.02 54.8137C153.559 55.4615 152.859 55.8996 152.075 56.0317C151.291 56.1638 150.487 55.979 149.839 55.5179ZM153.739 43.5744C153.205 43.1505 152.496 43.0207 151.847 43.2309C151.09 43.5396 150.448 44.079 150.014 44.7726L149.253 45.8425C148.75 46.4757 148.473 47.2585 148.464 48.067C148.514 48.7466 148.883 49.3605 149.457 49.7262C149.796 49.9732 150.18 50.1493 150.587 50.2474L150.607 50.2526L150.582 50.2472C150.969 50.3368 151.369 50.3295 151.754 50.2281L153.502 47.772L151.659 46.4604L151.014 47.3666L151.775 47.9082L150.999 48.9988L150.852 49.0043C150.625 48.9952 150.407 48.9154 150.229 48.776C150.078 48.6853 149.956 48.5553 149.874 48.4C149.793 48.2447 149.756 48.0701 149.766 47.8951C149.86 47.4041 150.075 46.9442 150.391 46.5569L151.159 45.4785C151.412 45.0748 151.757 44.7367 152.166 44.4918C152.309 44.4214 152.469 44.3933 152.627 44.4106C152.785 44.428 152.935 44.4901 153.059 44.5898C153.163 44.6519 153.252 44.7372 153.318 44.8389C153.384 44.9406 153.427 45.0562 153.441 45.1767C153.419 45.5105 153.301 45.8313 153.106 46.1007L154.165 46.8543C154.555 46.3127 154.749 45.6545 154.715 44.9881C154.661 44.697 154.546 44.4205 154.378 44.1769C154.21 43.9332 153.992 43.7279 153.739 43.5744ZM140.403 40.3388C140.138 40.6951 139.967 41.1141 139.906 41.5532C139.857 41.9485 139.923 42.349 140.096 42.709C140.273 43.0726 140.541 43.3844 140.872 43.6166C141.302 43.9592 141.852 44.1116 142.396 44.0446C142.664 43.9931 142.919 43.8871 143.144 43.7332C143.37 43.5793 143.561 43.3808 143.706 43.15C144.018 42.746 144.184 42.2461 144.174 41.7351C144.119 41.1645 143.915 40.6184 143.583 40.1514C143.419 39.8902 143.305 39.6006 143.247 39.2975C143.22 39.0953 143.272 38.8906 143.391 38.725C143.51 38.5386 143.692 38.4017 143.904 38.3397C144.004 38.3158 144.108 38.3148 144.208 38.3369C144.308 38.3589 144.401 38.4035 144.482 38.4672C144.669 38.586 144.784 38.7925 144.785 39.0159C144.77 39.2871 144.669 39.5466 144.497 39.7567L145.579 40.5268C145.819 40.2001 145.98 39.8219 146.048 39.4222C146.111 39.0596 146.064 38.6867 145.915 38.3504C145.758 38.0045 145.51 37.7084 145.196 37.4944C144.755 37.1594 144.199 37.0113 143.65 37.082C143.379 37.1237 143.119 37.222 142.889 37.3707C142.659 37.5193 142.462 37.7149 142.313 37.9446C142.028 38.3283 141.883 38.7975 141.901 39.2748C141.962 39.8569 142.167 40.4134 142.499 40.894C142.663 41.1436 142.777 41.4233 142.834 41.7158C142.847 41.9587 142.768 42.1967 142.614 42.3837C142.3 42.8246 141.95 42.9117 141.573 42.6439C141.457 42.5758 141.357 42.4813 141.283 42.368C141.209 42.2547 141.163 42.1256 141.147 41.9912C141.168 41.6693 141.291 41.3624 141.499 41.1151L140.403 40.3388ZM147.185 39.0351L144.494 46.0732L145.624 46.8772L151.403 42.0373L150.193 41.1759L146.213 44.8421L148.381 39.8915L147.185 39.0351ZM159.378 29.1883L155.032 35.2949L161.138 39.6408L159.378 29.1883Z" fill="#BCBCBC"/>
</g>
<defs>
<clipPath id="clip0_1191_169">
<rect width="36" height="37" fill="white" transform="translate(99.2617)"/>
</clipPath>
<clipPath id="clip1_1191_169">
<rect width="37.7631" height="37.7631" fill="white" transform="translate(56 32.6875) rotate(-35.0435)"/>
</clipPath>
<clipPath id="clip2_1191_169">
<rect width="35.9768" height="35.9768" fill="white" transform="translate(146.977 13) rotate(35.4389)"/>
</clipPath>
</defs>
</svg>
