<svg width="135" height="135" viewBox="0 0 135 135" fill="none" xmlns="http://www.w3.org/2000/svg">
<path d="M134.523 67.5234C134.523 104.527 104.527 134.523 67.5234 134.523C30.5204 134.523 0.523438 104.527 0.523438 67.5234C0.523438 30.5204 30.5204 0.523438 67.5234 0.523438C104.527 0.523438 134.523 30.5204 134.523 67.5234Z" fill="white"/>
<path d="M134.523 67.5234C134.523 79.4215 131.355 91.1049 125.344 101.373C119.333 111.641 110.696 120.123 100.321 125.947C89.9456 131.771 78.2067 134.728 66.3106 134.512C54.4145 134.297 42.7903 130.918 32.6328 124.722L67.5231 67.5234H134.523Z" fill="#E0DEF7"/>
<path d="M32.9609 124.917C24.5905 119.877 17.4238 113.066 11.9633 104.964C6.50273 96.8613 2.88043 87.6625 1.35031 78.0122L67.5237 67.5199L32.9609 124.917Z" fill="#DAF1F8"/>
<path d="M1.3556 78.0526C-0.17532 68.4299 0.410996 58.5891 3.07367 49.2163C5.73634 39.8435 10.4113 31.1643 16.7726 23.7837L67.5234 67.5256L1.3556 78.0526Z" fill="#F5DFF4"/>
<path d="M16.7644 23.7917C21.2309 18.6075 26.4652 14.138 32.2852 10.539L67.524 67.5234L16.7644 23.7917Z" fill="#FBEFD9"/>
<path d="M32.3044 10.5236C42.4541 4.25206 54.0944 0.804585 66.0224 0.537397C77.9505 0.270208 89.7334 3.193 100.154 9.00374C110.574 14.8145 119.254 23.3024 125.296 33.5903C131.338 43.8782 134.523 55.593 134.523 67.524L67.5229 67.5206L32.3044 10.5236Z" fill="#F7DEDE"/>
</svg>
