<svg width="13" height="14" viewBox="0 0 13 14" fill="none" xmlns="http://www.w3.org/2000/svg">
<path d="M7.49991 3.88002V6.55866L9.6355 7.89116C9.72186 7.94283 9.79746 8.01188 9.85787 8.09427C9.91829 8.17666 9.96231 8.27075 9.98738 8.37103C10.0124 8.47132 10.018 8.57579 10.0038 8.67835C9.98966 8.78091 9.95596 8.8795 9.90473 8.96837C9.85349 9.05724 9.78575 9.13459 9.70544 9.19593C9.62514 9.25726 9.5339 9.30134 9.43703 9.32559C9.34017 9.34984 9.23963 9.35378 9.14129 9.33717C9.04295 9.32056 8.94877 9.28374 8.86426 9.22886L6.3643 7.66886C6.25319 7.59959 6.16124 7.50158 6.09738 7.38436C6.03352 7.26715 5.99995 7.13473 5.99993 7.00001V3.88002C5.99993 3.67315 6.07894 3.47475 6.21959 3.32847C6.36024 3.1822 6.55101 3.10002 6.74992 3.10002C6.94883 3.10002 7.13959 3.1822 7.28024 3.32847C7.42089 3.47475 7.49991 3.67315 7.49991 3.88002ZM6.74992 0.500021C5.92811 0.497821 5.11405 0.665253 4.35492 0.992617C3.59578 1.31998 2.90665 1.80077 2.32747 2.40712C2.03435 2.71522 1.76498 3.01617 1.49998 3.31712V2.84002C1.49998 2.63315 1.42096 2.43475 1.28031 2.28848C1.13966 2.1422 0.948901 2.06002 0.749991 2.06002C0.551081 2.06002 0.360318 2.1422 0.219667 2.28848C0.0790167 2.43475 0 2.63315 0 2.84002V5.44001C0 5.64688 0.0790167 5.84528 0.219667 5.99156C0.360318 6.13783 0.551081 6.22001 0.749991 6.22001H3.24996C3.44887 6.22001 3.63963 6.13783 3.78028 5.99156C3.92093 5.84528 3.99995 5.64688 3.99995 5.44001C3.99995 5.23314 3.92093 5.03475 3.78028 4.88847C3.63963 4.74219 3.44887 4.66001 3.24996 4.66001H2.3606C2.68747 4.27002 3.02309 3.89432 3.39121 3.50692C4.0513 2.82022 4.89134 2.35106 5.80636 2.15807C6.72138 1.96509 7.6708 2.05683 8.53596 2.42184C9.40113 2.78685 10.1437 3.40894 10.6708 4.21037C11.198 5.01179 11.4863 5.95701 11.4999 6.92791C11.5134 7.89881 11.2515 8.85233 10.7469 9.66931C10.2423 10.4863 9.51742 11.1305 8.66279 11.5214C7.80816 11.9124 6.8617 12.0327 5.94169 11.8674C5.02167 11.7021 4.16891 11.2584 3.48996 10.5919C3.34525 10.4499 3.15221 10.3734 2.95331 10.3794C2.7544 10.3854 2.56593 10.4733 2.42934 10.6238C2.29276 10.7743 2.21925 10.975 2.225 11.1819C2.23074 11.3887 2.31526 11.5848 2.45997 11.7268C3.20185 12.4551 4.10388 12.9835 5.0873 13.2657C6.07073 13.548 7.10564 13.5756 8.10169 13.3462C9.09774 13.1167 10.0246 12.6372 10.8015 11.9494C11.5783 11.2616 12.1814 10.3865 12.5582 9.40053C12.9349 8.41453 13.0739 7.3476 12.9629 6.29289C12.8519 5.23817 12.4944 4.22775 11.9215 3.34984C11.3486 2.47193 10.5777 1.75322 9.67626 1.25646C8.77479 0.759697 7.77011 0.499994 6.74992 0.500021Z" fill="#A3A3A3"/>
</svg>
