<svg width="115" height="22" viewBox="0 0 115 22" fill="none" xmlns="http://www.w3.org/2000/svg">
<path d="M16.443 0.641999V4.615H11.049V21H6.09V4.615H0.696V0.641999H16.443ZM31.6048 17.404H24.0068L22.7888 21H17.5978L24.9638 0.641999H30.7058L38.0718 21H32.8228L31.6048 17.404ZM30.3288 13.576L27.8058 6.123L25.3118 13.576H30.3288ZM47.6796 21.203C46.191 21.203 44.857 20.9613 43.6776 20.478C42.4983 19.9947 41.551 19.2793 40.8356 18.332C40.1396 17.3847 39.7723 16.244 39.7336 14.91H45.0116C45.089 15.664 45.35 16.244 45.7946 16.65C46.2393 17.0367 46.8193 17.23 47.5346 17.23C48.2693 17.23 48.8493 17.0657 49.2746 16.737C49.7 16.389 49.9126 15.9153 49.9126 15.316C49.9126 14.8133 49.7386 14.3977 49.3906 14.069C49.062 13.7403 48.6463 13.4697 48.1436 13.257C47.6603 13.0443 46.9643 12.8027 46.0556 12.532C44.741 12.126 43.668 11.72 42.8366 11.314C42.0053 10.908 41.29 10.3087 40.6906 9.516C40.0913 8.72333 39.7916 7.689 39.7916 6.413C39.7916 4.51833 40.478 3.03933 41.8506 1.976C43.2233 0.893333 45.0116 0.352 47.2156 0.352C49.4583 0.352 51.266 0.893333 52.6386 1.976C54.0113 3.03933 54.746 4.528 54.8426 6.442H49.4776C49.439 5.78467 49.1973 5.27233 48.7526 4.905C48.308 4.51833 47.7376 4.325 47.0416 4.325C46.4423 4.325 45.959 4.48933 45.5916 4.818C45.2243 5.12733 45.0406 5.58167 45.0406 6.181C45.0406 6.83833 45.35 7.35067 45.9686 7.718C46.5873 8.08533 47.554 8.48167 48.8686 8.907C50.1833 9.35167 51.2466 9.777 52.0586 10.183C52.89 10.589 53.6053 11.1787 54.2046 11.952C54.804 12.7253 55.1036 13.721 55.1036 14.939C55.1036 16.099 54.804 17.1527 54.2046 18.1C53.6246 19.0473 52.774 19.8013 51.6526 20.362C50.5313 20.9227 49.207 21.203 47.6796 21.203ZM69.9584 21L63.1144 12.01V21H58.1554V0.641999H63.1144V9.574L69.9004 0.641999H75.7294L67.8414 10.618L76.0194 21H69.9584ZM83.2481 0.641999V12.822C83.2481 14.04 83.5478 14.9777 84.1471 15.635C84.7465 16.2923 85.6261 16.621 86.7861 16.621C87.9461 16.621 88.8355 16.2923 89.4541 15.635C90.0728 14.9777 90.3821 14.04 90.3821 12.822V0.641999H95.3411V12.793C95.3411 14.6103 94.9545 16.1473 94.1811 17.404C93.4078 18.6607 92.3638 19.608 91.0491 20.246C89.7538 20.884 88.3038 21.203 86.6991 21.203C85.0945 21.203 83.6541 20.8937 82.3781 20.275C81.1215 19.637 80.1258 18.6897 79.3911 17.433C78.6565 16.157 78.2891 14.6103 78.2891 12.793V0.641999H83.2481ZM114.338 7.196C114.338 8.37533 114.068 9.458 113.526 10.444C112.985 11.4107 112.154 12.1937 111.032 12.793C109.911 13.3923 108.519 13.692 106.856 13.692H103.782V21H98.8234V0.641999H106.856C108.48 0.641999 109.853 0.922333 110.974 1.483C112.096 2.04367 112.937 2.817 113.497 3.803C114.058 4.789 114.338 5.92 114.338 7.196ZM106.479 9.748C107.427 9.748 108.132 9.52567 108.596 9.081C109.06 8.63633 109.292 8.008 109.292 7.196C109.292 6.384 109.06 5.75567 108.596 5.311C108.132 4.86633 107.427 4.644 106.479 4.644H103.782V9.748H106.479Z" fill="#653CDC"/>
</svg>
