<svg width="32" height="32" viewBox="0 0 32 32" fill="none" xmlns="http://www.w3.org/2000/svg">
<path d="M14.6568 19.743C15.9971 18.8508 17.0146 17.5509 17.5589 16.0356C18.1033 14.5203 18.1455 12.8701 17.6794 11.3289C17.2134 9.78776 16.2637 8.43751 14.9708 7.47783C13.678 6.51815 12.1106 6 10.5006 6C8.89046 6 7.3231 6.51815 6.03026 7.47783C4.73743 8.43751 3.78775 9.78776 3.32166 11.3289C2.85558 12.8701 2.89783 14.5203 3.44217 16.0356C3.98652 17.5509 5.00405 18.8508 6.3443 19.743C3.91992 20.6366 1.84943 22.2901 0.4418 24.4568C0.36782 24.5667 0.316433 24.6903 0.290627 24.8203C0.264821 24.9503 0.265109 25.0841 0.291477 25.214C0.317844 25.3439 0.369764 25.4672 0.444219 25.5768C0.518673 25.6865 0.614177 25.7802 0.725178 25.8526C0.83618 25.925 0.960466 25.9746 1.09081 25.9986C1.22116 26.0225 1.35496 26.0203 1.48445 25.9921C1.61393 25.9639 1.73652 25.9102 1.84507 25.8342C1.95363 25.7582 2.046 25.6613 2.1168 25.5493C3.02479 24.1528 4.26725 23.0052 5.73135 22.2108C7.19545 21.4163 8.83481 21.0002 10.5006 21.0002C12.1663 21.0002 13.8057 21.4163 15.2698 22.2108C16.7339 23.0052 17.9763 24.1528 18.8843 25.5493C19.031 25.7673 19.2575 25.9188 19.515 25.9711C19.7725 26.0233 20.0402 25.9722 20.2603 25.8286C20.4804 25.6851 20.6351 25.4607 20.691 25.204C20.747 24.9473 20.6997 24.6789 20.5593 24.4568C19.1517 22.2901 17.0812 20.6366 14.6568 19.743ZM5.00055 13.503C5.00055 12.4152 5.32312 11.3519 5.92747 10.4474C6.53182 9.54294 7.3908 8.83799 8.39579 8.42171C9.40078 8.00542 10.5067 7.89651 11.5735 8.10872C12.6404 8.32094 13.6204 8.84477 14.3896 9.61396C15.1588 10.3831 15.6827 11.3632 15.8949 12.43C16.1071 13.4969 15.9982 14.6028 15.5819 15.6078C15.1656 16.6128 14.4607 17.4718 13.5562 18.0761C12.6517 18.6805 11.5883 19.003 10.5006 19.003C9.04237 19.0014 7.64438 18.4214 6.61329 17.3903C5.5822 16.3592 5.0022 14.9612 5.00055 13.503ZM31.2681 25.8405C31.0459 25.9854 30.7754 26.0361 30.5159 25.9815C30.2564 25.9268 30.0292 25.7714 29.8843 25.5493C28.9774 24.1519 27.7351 23.0039 26.2707 22.2098C24.8063 21.4157 23.1664 21.0008 21.5006 21.003C21.2353 21.003 20.981 20.8977 20.7934 20.7102C20.6059 20.5226 20.5006 20.2683 20.5006 20.003C20.5006 19.7378 20.6059 19.4835 20.7934 19.2959C20.981 19.1084 21.2353 19.003 21.5006 19.003C22.3105 19.0023 23.1103 18.8226 23.8428 18.4769C24.5753 18.1312 25.2224 17.628 25.7378 17.0033C26.2533 16.3785 26.6244 15.6476 26.8246 14.8628C27.0249 14.0779 27.0493 13.2586 26.8962 12.4632C26.743 11.6679 26.4161 10.9162 25.9388 10.2618C25.4615 9.60742 24.8455 9.06655 24.1349 8.67783C23.4243 8.28912 22.6367 8.06214 21.8282 8.01313C21.0197 7.96411 20.2104 8.09427 19.4581 8.39429C19.3354 8.44732 19.2033 8.47522 19.0697 8.47635C18.9361 8.47748 18.8036 8.45182 18.68 8.40087C18.5565 8.34992 18.4444 8.27473 18.3504 8.17973C18.2564 8.08473 18.1824 7.97186 18.1328 7.84778C18.0831 7.7237 18.0589 7.59093 18.0614 7.45732C18.064 7.3237 18.0933 7.19195 18.1476 7.06986C18.2019 6.94776 18.2802 6.83779 18.3777 6.74645C18.4753 6.65511 18.5902 6.58424 18.7156 6.53804C20.4374 5.85136 22.3525 5.82665 24.0915 6.46868C25.8304 7.11071 27.27 8.37399 28.1325 10.0148C28.9951 11.6556 29.2194 13.5577 28.7622 15.3542C28.305 17.1506 27.1987 18.7141 25.6568 19.743C28.0812 20.6366 30.1517 22.2901 31.5593 24.4568C31.7041 24.6789 31.7548 24.9495 31.7002 25.209C31.6456 25.4685 31.4901 25.6956 31.2681 25.8405Z" fill="#A9A8A8"/>
</svg>
