<svg width="24" height="26" viewBox="0 0 24 26" fill="none" xmlns="http://www.w3.org/2000/svg">
<path d="M22 19H2C1.46957 19 0.960859 19.2107 0.585786 19.5858C0.210714 19.9609 0 20.4696 0 21V24C0 24.5304 0.210714 25.0391 0.585786 25.4142C0.960859 25.7893 1.46957 26 2 26H22C22.5304 26 23.0391 25.7893 23.4142 25.4142C23.7893 25.0391 24 24.5304 24 24V21C24 20.4696 23.7893 19.9609 23.4142 19.5858C23.0391 19.2107 22.5304 19 22 19ZM22 24H2V21H22V24ZM22 10H2C1.46957 10 0.960859 10.2107 0.585786 10.5858C0.210714 10.9609 0 11.4696 0 12V15C0 15.5304 0.210714 16.0391 0.585786 16.4142C0.960859 16.7893 1.46957 17 2 17H22C22.5304 17 23.0391 16.7893 23.4142 16.4142C23.7893 16.0391 24 15.5304 24 15V12C24 11.4696 23.7893 10.9609 23.4142 10.5858C23.0391 10.2107 22.5304 10 22 10ZM22 15H2V12H22V15ZM8 4C8 3.73478 8.10536 3.48043 8.29289 3.29289C8.48043 3.10536 8.73478 3 9 3H11V1C11 0.734784 11.1054 0.48043 11.2929 0.292893C11.4804 0.105357 11.7348 0 12 0C12.2652 0 12.5196 0.105357 12.7071 0.292893C12.8946 0.48043 13 0.734784 13 1V3H15C15.2652 3 15.5196 3.10536 15.7071 3.29289C15.8946 3.48043 16 3.73478 16 4C16 4.26522 15.8946 4.51957 15.7071 4.70711C15.5196 4.89464 15.2652 5 15 5H13V7C13 7.26522 12.8946 7.51957 12.7071 7.70711C12.5196 7.89464 12.2652 8 12 8C11.7348 8 11.4804 7.89464 11.2929 7.70711C11.1054 7.51957 11 7.26522 11 7V5H9C8.73478 5 8.48043 4.89464 8.29289 4.70711C8.10536 4.51957 8 4.26522 8 4Z" fill="#6C6C6C"/>
</svg>
