<svg width="23" height="25" viewBox="0 0 23 25" fill="none" xmlns="http://www.w3.org/2000/svg">
<path d="M16.0946 24.0742C16.0946 24.3197 15.9979 24.5552 15.8258 24.7288C15.6537 24.9025 15.4202 25 15.1768 25H7.83431C7.59089 25 7.35744 24.9025 7.18532 24.7288C7.01319 24.5552 6.91649 24.3197 6.91649 24.0742C6.91649 23.8286 7.01319 23.5931 7.18532 23.4195C7.35744 23.2458 7.59089 23.1483 7.83431 23.1483H15.1768C15.4202 23.1483 15.6537 23.2458 15.8258 23.4195C15.9979 23.5931 16.0946 23.8286 16.0946 24.0742ZM22.9083 5.1313C21.8767 3.0975 20.3278 1.37686 18.4202 0.145603C18.3182 0.0799235 18.2044 0.035214 18.0853 0.0140441C17.9662 -0.00712585 17.8441 -0.0043386 17.7261 0.0222454C17.608 0.0488295 17.4964 0.098686 17.3975 0.168949C17.2986 0.239213 17.2145 0.328497 17.1499 0.431669C17.0854 0.534842 17.0417 0.649869 17.0213 0.770136C17.001 0.890404 17.0044 1.01354 17.0314 1.13247C17.0584 1.2514 17.1084 1.36377 17.1786 1.46313C17.2488 1.56249 17.3378 1.64688 17.4404 1.71144C19.0771 2.7617 20.4031 4.23726 21.2791 5.98308C21.3949 6.19409 21.5877 6.35122 21.8166 6.42101C22.0455 6.4908 22.2923 6.46775 22.5045 6.35677C22.7168 6.24578 22.8778 6.05562 22.9532 5.82675C23.0286 5.59788 23.0125 5.34837 22.9083 5.1313ZM0.91743 6.48303C1.08558 6.48296 1.25047 6.4363 1.39412 6.34813C1.53777 6.25996 1.65464 6.13368 1.73199 5.98308C2.60805 4.23726 3.93408 2.7617 5.57075 1.71144C5.67337 1.64688 5.76234 1.56249 5.83253 1.46313C5.90271 1.36377 5.95274 1.2514 5.97973 1.13247C6.00673 1.01354 6.01015 0.890404 5.98981 0.770136C5.96947 0.649869 5.92576 0.534842 5.86121 0.431669C5.79665 0.328497 5.71251 0.239213 5.61364 0.168949C5.51476 0.098686 5.40309 0.0488295 5.28505 0.0222454C5.16701 -0.0043386 5.04492 -0.00712585 4.92581 0.0140441C4.8067 0.035214 4.69291 0.0799235 4.59098 0.145603C2.68333 1.37686 1.13441 3.0975 0.10287 5.1313C0.0304059 5.27239 -0.00483682 5.42993 0.000533595 5.58875C0.00590401 5.74757 0.0517067 5.90232 0.133534 6.0381C0.215361 6.17389 0.330458 6.28615 0.467748 6.36408C0.605038 6.442 0.7599 6.48297 0.91743 6.48303ZM22.2681 18.5121C22.4307 18.7934 22.5169 19.1129 22.518 19.4386C22.5191 19.7642 22.4351 20.0843 22.2744 20.3667C22.1137 20.6491 21.8821 20.8838 21.6028 21.047C21.3235 21.2103 21.0065 21.2964 20.6837 21.2966H2.32742C2.00483 21.296 1.68811 21.2096 1.40916 21.0462C1.1302 20.8827 0.898867 20.648 0.738455 20.3657C0.578044 20.0834 0.49422 19.7634 0.495429 19.438C0.496637 19.1126 0.582835 18.7932 0.74534 18.5121C1.77903 16.7125 2.32742 14.1537 2.32742 11.1123C2.32742 8.65677 3.2944 6.30184 5.01564 4.56554C6.73687 2.82924 9.07137 1.85379 11.5056 1.85379C13.9398 1.85379 16.2743 2.82924 17.9955 4.56554C19.7167 6.30184 20.6837 8.65677 20.6837 11.1123C20.6837 14.1525 21.2321 16.7113 22.2681 18.5121ZM20.6837 19.4449C19.463 17.3305 18.8481 14.5275 18.8481 11.1123C18.8481 9.14787 18.0745 7.26393 16.6975 5.87489C15.3205 4.48584 13.4529 3.70549 11.5056 3.70549C9.55821 3.70549 7.69061 4.48584 6.31362 5.87489C4.93664 7.26393 4.16305 9.14787 4.16305 11.1123C4.16305 14.5287 3.54582 17.3317 2.32742 19.4449H20.6837Z" fill="#777777"/>
</svg>
