<svg width="28" height="28" viewBox="0 0 28 28" fill="none" xmlns="http://www.w3.org/2000/svg">
<path d="M16.7081 15.2933C16.6152 15.2003 16.5049 15.1266 16.3835 15.0762C16.2621 15.0259 16.132 15 16.0006 15C15.8691 15 15.739 15.0259 15.6176 15.0762C15.4962 15.1266 15.3859 15.2003 15.2931 15.2933L13.0006 17.587L10.4143 15.0008L12.7081 12.7083C12.8957 12.5206 13.0011 12.2662 13.0011 12.0008C13.0011 11.7354 12.8957 11.4809 12.7081 11.2933C12.5204 11.1056 12.2659 11.0002 12.0006 11.0002C11.7352 11.0002 11.4807 11.1056 11.2931 11.2933L9.00056 13.587L6.70806 11.2933C6.52042 11.1056 6.26592 11.0002 6.00056 11.0002C5.73519 11.0002 5.4807 11.1056 5.29306 11.2933C5.10542 11.4809 5 11.7354 5 12.0008C5 12.2662 5.10542 12.5206 5.29306 12.7083L6.08681 13.5008L3.17181 16.4145C2.80027 16.786 2.50556 17.227 2.30448 17.7123C2.1034 18.1977 1.99991 18.7179 1.99991 19.2433C1.99991 19.7687 2.1034 20.2889 2.30448 20.7742C2.50556 21.2596 2.80027 21.7006 3.17181 22.072L3.84431 22.7433L0.293056 26.2933C0.200146 26.3862 0.126445 26.4965 0.0761627 26.6179C0.02588 26.7393 0 26.8694 0 27.0008C0 27.1322 0.02588 27.2623 0.0761627 27.3837C0.126445 27.5051 0.200146 27.6154 0.293056 27.7083C0.480697 27.8959 0.735192 28.0013 1.00056 28.0013C1.13195 28.0013 1.26206 27.9755 1.38345 27.9252C1.50485 27.8749 1.61515 27.8012 1.70806 27.7083L5.25806 24.157L5.92931 24.8295C6.30075 25.2011 6.74175 25.4958 7.22711 25.6969C7.71247 25.8979 8.23269 26.0014 8.75806 26.0014C9.28342 26.0014 9.80364 25.8979 10.289 25.6969C10.7744 25.4958 11.2154 25.2011 11.5868 24.8295L14.5006 21.9145L15.2931 22.7083C15.386 22.8012 15.4963 22.8749 15.6177 22.9252C15.7391 22.9755 15.8692 23.0013 16.0006 23.0013C16.132 23.0013 16.2621 22.9755 16.3835 22.9252C16.5048 22.8749 16.6151 22.8012 16.7081 22.7083C16.801 22.6154 16.8747 22.5051 16.9249 22.3837C16.9752 22.2623 17.0011 22.1322 17.0011 22.0008C17.0011 21.8694 16.9752 21.7393 16.9249 21.6179C16.8747 21.4965 16.801 21.3862 16.7081 21.2933L14.4143 19.0008L16.7081 16.7083C16.801 16.6154 16.8748 16.5051 16.9251 16.3837C16.9754 16.2623 17.0013 16.1322 17.0013 16.0008C17.0013 15.8694 16.9754 15.7392 16.9251 15.6178C16.8748 15.4964 16.801 15.3862 16.7081 15.2933ZM10.1718 23.4183C9.79677 23.7931 9.28826 24.0036 8.75806 24.0036C8.22785 24.0036 7.71934 23.7931 7.34431 23.4183L4.58681 20.657C4.21202 20.282 4.00148 19.7735 4.00148 19.2433C4.00148 18.7131 4.21202 18.2046 4.58681 17.8295L7.50056 14.9145L13.0868 20.5008L10.1718 23.4183ZM27.7081 0.293287C27.6152 0.20031 27.5049 0.126551 27.3835 0.0762268C27.2621 0.0259025 27.132 0 27.0006 0C26.8691 0 26.739 0.0259025 26.6176 0.0762268C26.4962 0.126551 26.3859 0.20031 26.2931 0.293287L22.7431 3.84454L22.0718 3.17204C21.3208 2.42322 20.3036 2.00272 19.2431 2.00272C18.1825 2.00272 17.1653 2.42322 16.4143 3.17204L13.5006 6.08704L12.7081 5.29329C12.5204 5.10565 12.2659 5.00023 12.0006 5.00023C11.7352 5.00023 11.4807 5.10565 11.2931 5.29329C11.1054 5.48093 11 5.73542 11 6.00079C11 6.26615 11.1054 6.52065 11.2931 6.70829L21.2931 16.7083C21.386 16.8012 21.4963 16.8749 21.6177 16.9252C21.7391 16.9755 21.8692 17.0013 22.0006 17.0013C22.132 17.0013 22.2621 16.9755 22.3835 16.9252C22.5048 16.8749 22.6151 16.8012 22.7081 16.7083C22.801 16.6154 22.8747 16.5051 22.9249 16.3837C22.9752 16.2623 23.0011 16.1322 23.0011 16.0008C23.0011 15.8694 22.9752 15.7393 22.9249 15.6179C22.8747 15.4965 22.801 15.3862 22.7081 15.2933L21.9143 14.5008L24.8293 11.587C25.2008 11.2156 25.4956 10.7746 25.6966 10.2892C25.8977 9.80387 26.0012 9.28365 26.0012 8.75829C26.0012 8.23292 25.8977 7.7127 25.6966 7.22734C25.4956 6.74198 25.2008 6.30098 24.8293 5.92954L24.1568 5.25829L27.7081 1.70829C27.801 1.61541 27.8748 1.50513 27.9251 1.38373C27.9754 1.26233 28.0013 1.1322 28.0013 1.00079C28.0013 0.869371 27.9754 0.739244 27.9251 0.617846C27.8748 0.496448 27.801 0.38616 27.7081 0.293287ZM23.4143 10.1683L20.5006 13.087L14.9143 7.50079L17.8293 4.58704C18.2043 4.21225 18.7129 4.00171 19.2431 4.00171C19.7733 4.00171 20.2818 4.21225 20.6568 4.58704L23.4143 7.33704C23.601 7.52287 23.7492 7.74376 23.8503 7.98702C23.9513 8.23028 24.0034 8.49111 24.0034 8.75454C24.0034 9.01796 23.9513 9.2788 23.8503 9.52205C23.7492 9.76531 23.601 9.9862 23.4143 10.172V10.1683Z" fill="#777777"/>
</svg>
